# 
# Wavefront OBJ file
# Converted by the DEEP Exploration Deep Exploration 6.5 x64 6.5.0.9182
# Right Hemisphere, LTD
# http://www.righthemisphere.com/
# 
mtllib cursor_hexagonal.mtl
# object hexagon
g hexagon
v -0.90000 0.05000 0.00000
v -0.90000 -0.05000 0.00000
v -0.45000 0.05000 -0.77942
v -0.45000 -0.05000 -0.77942
v 0.45000 0.05000 -0.77942
v 0.45000 -0.05000 -0.77942
v 0.90000 -0.05000 0.00000
v 0.90000 0.05000 0.00000
v 0.45000 0.05000 0.77942
v 0.45000 -0.05000 0.77942
v -0.45000 0.05000 0.77942
v -0.45000 -0.05000 0.77942
v 0.50000 0.05000 -0.86602
v 1.00000 0.05000 0.00000
v 0.50000 0.05000 0.86602
v -0.50000 0.05000 0.86602
v -1.00000 0.05000 0.00000
v -0.50000 0.05000 -0.86602
v 1.00000 -0.05000 0.00000
v 0.50000 -0.05000 -0.86602
v 0.50000 -0.05000 0.86602
v -0.50000 -0.05000 0.86602
v -1.00000 -0.05000 0.00000
v -0.50000 -0.05000 -0.86602
# 24 verticies
vt 0.45833 0.68844
vt 0.45833 0.31250
vt 0.41667 0.68844
vt 0.41667 0.31250
vt 0.37500 0.68844
vt 0.37500 0.31250
vt 0.58333 0.31250
vt 0.58333 0.68844
vt 0.62500 0.31250
vt 0.62500 0.68844
vt 0.54167 0.68844
vt 0.54167 0.31250
vt 0.50000 0.68844
vt 0.50000 0.31250
vt 0.57031 0.96491
vt 0.64063 0.84312
vt 0.57813 0.97907
vt 0.65625 0.84375
vt 0.57031 0.72134
vt 0.57813 0.70843
vt 0.42969 0.72134
vt 0.42188 0.70843
vt 0.35938 0.84312
vt 0.34375 0.84375
vt 0.42969 0.96491
vt 0.42188 0.97907
vt 0.64063 0.15563
vt 0.57031 0.03384
vt 0.65625 0.15625
vt 0.57813 0.02093
vt 0.57031 0.27741
vt 0.57813 0.29157
vt 0.42969 0.27741
vt 0.42188 0.29157
vt 0.35938 0.15563
vt 0.34375 0.15625
vt 0.42969 0.03384
vt 0.42188 0.02093
# 38 texture verticies
vn 0.86603 0.00000 0.50000
vn 0.00000 0.00000 1.00000
vn -0.86603 0.00000 0.50000
vn -0.86603 0.00000 -0.50000
vn 0.00000 0.00000 -1.00000
vn 0.86603 0.00000 -0.50000
vn 0.00000 1.00000 0.00000
vn 0.00000 -1.00000 0.00000
# 8 normals
usemtl Explorer_Default
f  1/1/1 2/2/1 3/3/1
f  3/3/1 2/2/1 4/4/1
f  3/3/2 4/4/2 5/5/2
f  5/5/2 4/4/2 6/6/2
f  7/7/3 8/8/3 6/9/3
f  6/9/3 8/8/3 5/10/3
f  8/8/4 7/7/4 9/11/4
f  9/11/4 7/7/4 10/12/4
f  9/11/5 10/12/5 11/13/5
f  11/13/5 10/12/5 12/14/5
f  11/13/6 12/14/6 1/1/6
f  1/1/6 12/14/6 2/2/6
f  5/15/7 8/16/7 13/17/7
f  13/17/7 8/16/7 14/18/7
f  8/16/7 9/19/7 14/18/7
f  14/18/7 9/19/7 15/20/7
f  9/19/7 11/21/7 15/20/7
f  15/20/7 11/21/7 16/22/7
f  11/21/7 1/23/7 16/22/7
f  16/22/7 1/23/7 17/24/7
f  1/23/7 3/25/7 17/24/7
f  17/24/7 3/25/7 18/26/7
f  3/25/7 5/15/7 18/26/7
f  18/26/7 5/15/7 13/17/7
f  7/27/8 6/28/8 19/29/8
f  19/29/8 6/28/8 20/30/8
f  10/31/8 7/27/8 21/32/8
f  21/32/8 7/27/8 19/29/8
f  12/33/8 10/31/8 22/34/8
f  22/34/8 10/31/8 21/32/8
f  2/35/8 12/33/8 23/36/8
f  23/36/8 12/33/8 22/34/8
f  4/37/8 2/35/8 24/38/8
f  24/38/8 2/35/8 23/36/8
f  6/28/8 4/37/8 20/30/8
f  20/30/8 4/37/8 24/38/8
f  19/7/6 20/9/6 14/8/6
f  14/8/6 20/9/6 13/10/6
f  21/12/1 19/7/1 15/11/1
f  15/11/1 19/7/1 14/8/1
f  22/14/2 21/12/2 16/13/2
f  16/13/2 21/12/2 15/11/2
f  23/2/3 22/14/3 17/1/3
f  17/1/3 22/14/3 16/13/3
f  24/4/4 23/2/4 18/3/4
f  18/3/4 23/2/4 17/1/4
f  20/6/5 24/4/5 13/5/5
f  13/5/5 24/4/5 18/3/5
