# 
# Wavefront OBJ file
# Converted by the DEEP Exploration Deep Exploration 6.5 x64 6.5.0.9182
# Right Hemisphere, LTD
# http://www.righthemisphere.com/
# 
mtllib cursor_square.mtl
# object square
g square
v 0.45000 -0.05000 -0.45000
v 0.45000 0.05000 -0.45000
v -0.45000 -0.05000 -0.45000
v -0.45000 0.05000 -0.45000
v -0.45000 -0.05000 0.45000
v -0.45000 0.05000 0.45000
v 0.45000 -0.05000 0.45000
v 0.45000 0.05000 0.45000
v -0.50000 -0.05000 -0.50000
v -0.50000 -0.05000 0.50000
v -0.50000 0.05000 -0.50000
v -0.50000 0.05000 0.50000
v 0.50000 -0.05000 0.50000
v 0.50000 -0.05000 -0.50000
v 0.50000 0.05000 0.50000
v 0.50000 0.05000 -0.50000
# 16 verticies
vt 0.62500 0.75000
vt 0.62500 0.50000
vt 0.37500 0.75000
vt 0.37500 0.50000
vt 0.12500 0.00000
vt 0.12500 0.25000
vt 0.37500 0.00000
vt 0.37500 0.25000
vt 0.62500 0.00000
vt 0.62500 0.25000
vt 0.87500 0.00000
vt 0.87500 0.25000
vt 0.38750 0.76250
vt 0.37500 1.00000
vt 0.38750 0.98750
vt 0.61250 0.76250
vt 0.62500 1.00000
vt 0.61250 0.98750
vt 0.38750 0.26250
vt 0.38750 0.48750
vt 0.61250 0.26250
vt 0.61250 0.48750
# 22 texture verticies
vn 0.00000 0.00000 1.00000
vn 1.00000 0.00000 0.00000
vn 0.00000 0.00000 -1.00000
vn -1.00000 0.00000 0.00000
vn 0.00000 -1.00000 0.00000
vn 0.00000 1.00000 0.00000
# 6 normals
usemtl Explorer_Default
f  1/1/1 2/2/1 3/3/1
f  3/3/1 2/2/1 4/4/1
f  3/5/2 4/6/2 5/7/2
f  5/7/2 4/6/2 6/8/2
f  5/7/3 6/8/3 7/9/3
f  7/9/3 6/8/3 8/10/3
f  7/9/4 8/10/4 1/11/4
f  1/11/4 8/10/4 2/12/4
f  9/5/4 10/7/4 11/6/4
f  11/6/4 10/7/4 12/8/4
f  13/9/2 14/11/2 15/10/2
f  15/10/2 14/11/2 16/12/2
f  9/3/5 3/13/5 10/14/5
f  3/13/5 5/15/5 10/14/5
f  9/3/5 14/1/5 3/13/5
f  3/13/5 14/1/5 1/16/5
f  14/1/5 13/17/5 1/16/5
f  1/16/5 13/17/5 7/18/5
f  13/17/5 10/14/5 7/18/5
f  5/15/5 7/18/5 10/14/5
f  11/4/3 16/2/3 9/3/3
f  9/3/3 16/2/3 14/1/3
f  12/8/6 6/19/6 11/4/6
f  6/19/6 4/20/6 11/4/6
f  12/8/6 15/10/6 6/19/6
f  6/19/6 15/10/6 8/21/6
f  15/10/6 16/2/6 8/21/6
f  8/21/6 16/2/6 2/22/6
f  16/2/6 11/4/6 2/22/6
f  4/20/6 2/22/6 11/4/6
f  10/7/1 13/9/1 12/8/1
f  12/8/1 13/9/1 15/10/1
