# 
# Wavefront OBJ file
# Converted by the DEEP Exploration Deep Exploration 6.5 x64 6.5.0.9182
# Right Hemisphere, LTD
# http://www.righthemisphere.com/
# 
mtllib fence.mtl
# object fence
g fence
v -76.15530 0.05540 9.70450
v -76.15530 0.05540 8.80740
v -71.21680 0.05540 8.80740
v -71.21680 0.05540 9.70450
v -76.15530 34.34420 9.70450
v -71.21680 34.34420 9.70450
v -71.21680 34.34420 8.80740
v -76.15530 34.34420 8.80740
v -64.92990 0.05540 9.70450
v -64.92990 0.05540 8.80740
v -59.99140 0.05540 8.80740
v -59.99140 0.05540 9.70450
v -64.92990 34.34420 9.70450
v -59.99140 34.34420 9.70450
v -59.99140 34.34420 8.80740
v -64.92990 34.34420 8.80740
v -53.70450 0.05540 9.70450
v -53.70450 0.05540 8.80740
v -48.76600 0.05540 8.80740
v -48.76600 0.05540 9.70450
v -53.70450 34.34420 9.70450
v -48.76600 34.34420 9.70450
v -48.76600 34.34420 8.80740
v -53.70450 34.34420 8.80740
v -42.47920 0.05540 9.70450
v -42.47920 0.05540 8.80740
v -37.54060 0.05540 8.80740
v -37.54060 0.05540 9.70450
v -42.47920 34.34420 9.70450
v -37.54060 34.34420 9.70450
v -37.54060 34.34420 8.80740
v -42.47920 34.34420 8.80740
v -31.25380 0.05540 9.70450
v -31.25380 0.05540 8.80740
v -26.31530 0.05540 8.80740
v -26.31530 0.05540 9.70450
v -31.25380 34.34420 9.70450
v -26.31530 34.34420 9.70450
v -26.31530 34.34420 8.80740
v -31.25380 34.34420 8.80740
v -20.02840 0.05540 9.70450
v -20.02840 0.05540 8.80740
v -15.08990 0.05540 8.80740
v -15.08990 0.05540 9.70450
v -20.02840 34.34420 9.70450
v -15.08990 34.34420 9.70450
v -15.08990 34.34420 8.80740
v -20.02840 34.34420 8.80740
v -8.80300 0.05540 9.70450
v -8.80300 0.05540 8.80740
v -3.86450 0.05540 8.80740
v -3.86450 0.05540 9.70450
v -8.80300 34.34420 9.70450
v -3.86450 34.34420 9.70450
v -3.86450 34.34420 8.80740
v -8.80300 34.34420 8.80740
v 2.42240 0.05540 9.70450
v 2.42240 0.05540 8.80740
v 7.36090 0.05540 8.80740
v 7.36090 0.05540 9.70450
v 2.42240 34.34420 9.70450
v 7.36090 34.34420 9.70450
v 7.36090 34.34420 8.80740
v 2.42240 34.34420 8.80740
v 13.64770 0.05540 9.70450
v 13.64770 0.05540 8.80740
v 18.58630 0.05540 8.80740
v 18.58630 0.05540 9.70450
v 13.64770 34.34420 9.70450
v 18.58630 34.34420 9.70450
v 18.58630 34.34420 8.80740
v 13.64770 34.34420 8.80740
v 24.87310 0.05540 9.70450
v 24.87310 0.05540 8.80740
v 29.81160 0.05540 8.80740
v 29.81160 0.05540 9.70450
v 24.87310 34.34420 9.70450
v 29.81160 34.34420 9.70450
v 29.81160 34.34420 8.80740
v 24.87310 34.34420 8.80740
v 36.09850 0.05540 9.70450
v 36.09850 0.05540 8.80740
v 41.03700 0.05540 8.80740
v 41.03700 0.05540 9.70450
v 36.09850 34.34420 9.70450
v 41.03700 34.34420 9.70450
v 41.03700 34.34420 8.80740
v 36.09850 34.34420 8.80740
v 47.32390 0.05540 9.70450
v 47.32390 0.05540 8.80740
v 52.26240 0.05540 8.80740
v 52.26240 0.05540 9.70450
v 47.32390 34.34420 9.70450
v 52.26240 34.34420 9.70450
v 52.26240 34.34420 8.80740
v 47.32390 34.34420 8.80740
v 58.54930 0.05540 9.70450
v 58.54930 0.05540 8.80740
v 63.48780 0.05540 8.80740
v 63.48780 0.05540 9.70450
v 58.54930 34.34420 9.70450
v 63.48780 34.34420 9.70450
v 63.48780 34.34420 8.80740
v 58.54930 34.34420 8.80740
v 69.77460 0.05540 9.70450
v 69.77460 0.05540 8.80740
v 74.71320 0.05540 8.80740
v 74.71320 0.05540 9.70450
v 69.77460 34.34420 9.70450
v 74.71320 34.34420 9.70450
v 74.71320 34.34420 8.80740
v 69.77460 34.34420 8.80740
v -77.19780 32.14700 10.59880
v -77.19780 32.14700 9.70170
v -77.19780 27.20840 9.70170
v -77.19780 27.20840 10.59880
v 76.29260 32.14700 10.59880
v 76.29260 27.20840 10.59880
v 76.29260 27.20840 9.70170
v 76.29260 32.14700 9.70170
v -77.19780 22.78500 10.59880
v -77.19780 22.78500 9.70170
v -77.19780 17.84640 9.70170
v -77.19780 17.84640 10.59880
v 76.29260 22.78500 10.59880
v 76.29260 17.84640 10.59880
v 76.29260 17.84640 9.70170
v 76.29260 22.78500 9.70170
v -77.19780 13.42300 10.59880
v -77.19780 13.42300 9.70170
v -77.19780 8.48450 9.70170
v -77.19780 8.48450 10.59880
v 76.29260 13.42300 10.59880
v 76.29260 8.48440 10.59880
v 76.29260 8.48440 9.70170
v 76.29260 13.42300 9.70170
v -77.51230 0.01130 9.70440
v -77.51230 0.01130 10.17520
v -38.99420 0.01130 10.17520
v -38.99420 0.01130 9.70440
v -0.47600 0.01130 10.17520
v -0.47600 0.01130 9.70440
v 38.04210 0.01130 10.17520
v 38.04210 0.01130 9.70440
v 76.56030 0.01130 10.17520
v 76.56030 0.01130 9.70440
v -77.51230 0.01130 9.23360
v -38.99420 0.01130 9.23360
v -0.47600 0.01130 9.23360
v 38.04210 0.01130 9.23360
v 76.56030 0.01130 9.23360
v -77.51230 0.01130 8.76290
v -38.99420 0.01130 8.76290
v -0.47600 0.01130 8.76290
v 38.04210 0.01130 8.76290
v 76.56030 0.01130 8.76290
v -77.51230 0.01130 8.29210
v -38.99420 0.01130 8.29210
v -0.47600 0.01130 8.29210
v 38.04210 0.01130 8.29210
v 76.56030 0.01130 8.29210
# 161 verticies
vt 0.99950 0.00050
vt 0.00050 0.99950
vt 0.00050 0.00050
vt 0.99950 0.99950
vt -0.31980 0.00050
vt -0.00020 0.99950
vt -0.00020 0.00050
vt -0.31980 0.99950
vt 0.99950 -0.00050
vt 0.00050 -0.95950
vt 0.00050 -0.00050
vt 0.99950 -0.95950
vt 0.00000 0.25000
vt 0.25000 0.00000
vt 0.25000 0.25000
vt 0.00000 0.00000
vt 0.50000 0.00000
vt 0.50000 0.25000
vt 0.75000 0.00000
vt 0.75000 0.25000
vt 1.00000 0.00000
vt 1.00000 0.25000
vt 0.00000 0.50000
vt 0.25000 0.50000
vt 0.50000 0.50000
vt 0.75000 0.50000
vt 1.00000 0.50000
vt 0.00000 0.75000
vt 0.25000 0.75000
vt 0.50000 0.75000
vt 0.75000 0.75000
vt 1.00000 0.75000
vt 0.00000 1.00000
vt 0.25000 1.00000
vt 0.50000 1.00000
vt 0.75000 1.00000
vt 1.00000 1.00000
# 37 texture verticies
vn 0.00000 -1.00000 0.00000
vn 0.00000 1.00000 0.00000
vn 0.00000 0.00000 1.00000
vn 1.00000 0.00000 0.00000
vn 0.00000 0.00000 -1.00000
vn -1.00000 0.00000 0.00000
vn -0.00000 -1.00000 -0.00000
# 7 normals
usemtl fence
f  1/1/1 3/2/1 4/3/1
f  1/1/1 2/4/1 3/2/1
f  5/3/2 7/4/2 8/2/2
f  5/3/2 6/1/2 7/4/2
f  1/3/3 6/4/3 5/2/3
f  1/3/3 4/1/3 6/4/3
f  4/3/4 7/4/4 6/2/4
f  4/3/4 3/1/4 7/4/4
f  3/3/5 8/4/5 7/2/5
f  3/3/5 2/1/5 8/4/5
f  2/3/6 5/4/6 8/2/6
f  2/3/6 1/1/6 5/4/6
f  9/1/1 11/2/1 12/3/1
f  9/1/1 10/4/1 11/2/1
f  13/3/2 15/4/2 16/2/2
f  13/3/2 14/1/2 15/4/2
f  9/3/3 14/4/3 13/2/3
f  9/3/3 12/1/3 14/4/3
f  12/3/4 15/4/4 14/2/4
f  12/3/4 11/1/4 15/4/4
f  11/3/5 16/4/5 15/2/5
f  11/3/5 10/1/5 16/4/5
f  10/3/6 13/4/6 16/2/6
f  10/3/6 9/1/6 13/4/6
f  17/1/1 19/2/1 20/3/1
f  17/1/1 18/4/1 19/2/1
f  21/3/2 23/4/2 24/2/2
f  21/3/2 22/1/2 23/4/2
f  17/3/3 22/4/3 21/2/3
f  17/3/3 20/1/3 22/4/3
f  20/3/4 23/4/4 22/2/4
f  20/3/4 19/1/4 23/4/4
f  19/3/5 24/4/5 23/2/5
f  19/3/5 18/1/5 24/4/5
f  18/3/6 21/4/6 24/2/6
f  18/3/6 17/1/6 21/4/6
f  25/1/1 27/2/1 28/3/1
f  25/1/1 26/4/1 27/2/1
f  29/3/2 31/4/2 32/2/2
f  29/3/2 30/1/2 31/4/2
f  25/3/3 30/4/3 29/2/3
f  25/3/3 28/1/3 30/4/3
f  28/3/4 31/4/4 30/2/4
f  28/3/4 27/1/4 31/4/4
f  27/3/5 32/4/5 31/2/5
f  27/3/5 26/1/5 32/4/5
f  26/3/6 29/4/6 32/2/6
f  26/3/6 25/1/6 29/4/6
f  33/1/1 35/2/1 36/3/1
f  33/1/1 34/4/1 35/2/1
f  37/3/2 39/4/2 40/2/2
f  37/3/2 38/1/2 39/4/2
f  33/3/3 38/4/3 37/2/3
f  33/3/3 36/1/3 38/4/3
f  36/3/4 39/4/4 38/2/4
f  36/3/4 35/1/4 39/4/4
f  35/3/5 40/4/5 39/2/5
f  35/3/5 34/1/5 40/4/5
f  34/3/6 37/4/6 40/2/6
f  34/3/6 33/1/6 37/4/6
f  41/1/1 43/2/1 44/3/1
f  41/1/1 42/4/1 43/2/1
f  45/3/2 47/4/2 48/2/2
f  45/3/2 46/1/2 47/4/2
f  41/3/3 46/4/3 45/2/3
f  41/3/3 44/1/3 46/4/3
f  44/3/4 47/4/4 46/2/4
f  44/3/4 43/1/4 47/4/4
f  43/3/5 48/4/5 47/2/5
f  43/3/5 42/1/5 48/4/5
f  42/3/6 45/4/6 48/2/6
f  42/3/6 41/1/6 45/4/6
f  49/1/1 51/2/1 52/3/1
f  49/1/1 50/4/1 51/2/1
f  53/3/2 55/4/2 56/2/2
f  53/3/2 54/1/2 55/4/2
f  49/3/3 54/4/3 53/2/3
f  49/3/3 52/1/3 54/4/3
f  52/3/4 55/4/4 54/2/4
f  52/3/4 51/1/4 55/4/4
f  51/3/5 56/4/5 55/2/5
f  51/3/5 50/1/5 56/4/5
f  50/3/6 53/4/6 56/2/6
f  50/3/6 49/1/6 53/4/6
f  57/1/1 59/2/1 60/3/1
f  57/1/1 58/4/1 59/2/1
f  61/3/2 63/4/2 64/2/2
f  61/3/2 62/1/2 63/4/2
f  57/3/3 62/4/3 61/2/3
f  57/3/3 60/1/3 62/4/3
f  60/3/4 63/4/4 62/2/4
f  60/3/4 59/1/4 63/4/4
f  59/3/5 64/4/5 63/2/5
f  59/3/5 58/1/5 64/4/5
f  58/3/6 61/4/6 64/2/6
f  58/3/6 57/1/6 61/4/6
f  65/1/1 67/2/1 68/3/1
f  65/1/1 66/4/1 67/2/1
f  69/3/2 71/4/2 72/2/2
f  69/3/2 70/1/2 71/4/2
f  65/3/3 70/4/3 69/2/3
f  65/3/3 68/1/3 70/4/3
f  68/3/4 71/4/4 70/2/4
f  68/3/4 67/1/4 71/4/4
f  67/3/5 72/4/5 71/2/5
f  67/3/5 66/1/5 72/4/5
f  66/3/6 69/4/6 72/2/6
f  66/3/6 65/1/6 69/4/6
f  73/1/1 75/2/1 76/3/1
f  73/1/1 74/4/1 75/2/1
f  77/3/2 79/4/2 80/2/2
f  77/3/2 78/1/2 79/4/2
f  73/3/3 78/4/3 77/2/3
f  73/3/3 76/1/3 78/4/3
f  76/3/4 79/4/4 78/2/4
f  76/3/4 75/1/4 79/4/4
f  75/3/5 80/4/5 79/2/5
f  75/3/5 74/1/5 80/4/5
f  74/3/6 77/4/6 80/2/6
f  74/3/6 73/1/6 77/4/6
f  81/1/1 83/2/1 84/3/1
f  81/1/1 82/4/1 83/2/1
f  85/3/2 87/4/2 88/2/2
f  85/3/2 86/1/2 87/4/2
f  81/3/3 86/4/3 85/2/3
f  81/3/3 84/1/3 86/4/3
f  84/3/4 87/4/4 86/2/4
f  84/3/4 83/1/4 87/4/4
f  83/3/5 88/4/5 87/2/5
f  83/3/5 82/1/5 88/4/5
f  82/3/6 85/4/6 88/2/6
f  82/3/6 81/1/6 85/4/6
f  89/1/1 91/2/1 92/3/1
f  89/1/1 90/4/1 91/2/1
f  93/3/2 95/4/2 96/2/2
f  93/3/2 94/1/2 95/4/2
f  89/3/3 94/4/3 93/2/3
f  89/3/3 92/1/3 94/4/3
f  92/3/4 95/4/4 94/2/4
f  92/3/4 91/1/4 95/4/4
f  91/3/5 96/4/5 95/2/5
f  91/3/5 90/1/5 96/4/5
f  90/3/6 93/4/6 96/2/6
f  90/3/6 89/1/6 93/4/6
f  97/1/1 99/2/1 100/3/1
f  97/1/1 98/4/1 99/2/1
f  101/3/2 103/4/2 104/2/2
f  101/3/2 102/1/2 103/4/2
f  97/3/3 102/4/3 101/2/3
f  97/3/3 100/1/3 102/4/3
f  100/3/4 103/4/4 102/2/4
f  100/3/4 99/1/4 103/4/4
f  99/3/5 104/4/5 103/2/5
f  99/3/5 98/1/5 104/4/5
f  98/3/6 101/4/6 104/2/6
f  98/3/6 97/1/6 101/4/6
f  105/1/1 107/2/1 108/3/1
f  105/1/1 106/4/1 107/2/1
f  109/3/2 111/4/2 112/2/2
f  109/3/2 110/1/2 111/4/2
f  105/3/3 110/4/3 109/2/3
f  105/3/3 108/1/3 110/4/3
f  108/3/4 111/4/4 110/2/4
f  108/3/4 107/1/4 111/4/4
f  107/3/5 112/4/5 111/2/5
f  107/3/5 106/1/5 112/4/5
f  106/3/6 109/4/6 112/2/6
f  106/3/6 105/1/6 109/4/6
f  113/1/6 115/2/6 116/3/6
f  113/1/6 114/4/6 115/2/6
f  117/3/4 119/4/4 120/2/4
f  117/3/4 118/1/4 119/4/4
f  113/3/3 118/4/3 117/2/3
f  113/3/3 116/1/3 118/4/3
f  116/3/7 119/4/7 118/2/7
f  116/3/7 115/1/7 119/4/7
f  115/3/5 120/4/5 119/2/5
f  115/3/5 114/1/5 120/4/5
f  114/3/2 117/4/2 120/2/2
f  114/3/2 113/1/2 117/4/2
f  121/5/6 123/6/6 124/7/6
f  121/5/6 122/8/6 123/6/6
f  125/7/4 127/8/4 128/6/4
f  125/7/4 126/5/4 127/8/4
f  121/7/3 126/8/3 125/6/3
f  121/7/3 124/5/3 126/8/3
f  124/7/7 127/8/7 126/6/7
f  124/7/7 123/5/7 127/8/7
f  123/7/5 128/8/5 127/6/5
f  123/7/5 122/5/5 128/8/5
f  122/7/2 125/8/2 128/6/2
f  122/7/2 121/5/2 125/8/2
f  129/9/6 131/10/6 132/11/6
f  129/9/6 130/12/6 131/10/6
f  133/11/4 135/12/4 136/10/4
f  133/11/4 134/9/4 135/12/4
f  129/11/3 134/12/3 133/10/3
f  129/11/3 132/9/3 134/12/3
f  132/11/7 135/12/7 134/10/7
f  132/11/7 131/9/7 135/12/7
f  131/11/5 136/12/5 135/10/5
f  131/11/5 130/9/5 136/12/5
f  130/11/2 133/12/2 136/10/2
f  130/11/2 129/9/2 133/12/2
f  137/13/2 139/14/2 140/15/2
f  137/13/2 138/16/2 139/14/2
f  140/15/2 141/17/2 142/18/2
f  140/15/2 139/14/2 141/17/2
f  142/18/2 143/19/2 144/20/2
f  142/18/2 141/17/2 143/19/2
f  144/20/2 145/21/2 146/22/2
f  144/20/2 143/19/2 145/21/2
f  147/23/2 140/15/2 148/24/2
f  147/23/2 137/13/2 140/15/2
f  148/24/2 142/18/2 149/25/2
f  148/24/2 140/15/2 142/18/2
f  149/25/2 144/20/2 150/26/2
f  149/25/2 142/18/2 144/20/2
f  150/26/2 146/22/2 151/27/2
f  150/26/2 144/20/2 146/22/2
f  152/28/2 148/24/2 153/29/2
f  152/28/2 147/23/2 148/24/2
f  153/29/2 149/25/2 154/30/2
f  153/29/2 148/24/2 149/25/2
f  154/30/2 150/26/2 155/31/2
f  154/30/2 149/25/2 150/26/2
f  155/31/2 151/27/2 156/32/2
f  155/31/2 150/26/2 151/27/2
f  157/33/2 153/29/2 158/34/2
f  157/33/2 152/28/2 153/29/2
f  158/34/2 154/30/2 159/35/2
f  158/34/2 153/29/2 154/30/2
f  159/35/2 155/31/2 160/36/2
f  159/35/2 154/30/2 155/31/2
f  160/36/2 156/32/2 161/37/2
f  160/36/2 155/31/2 156/32/2
