# This file uses centimeters as units for non-parametric coordinates.

g default
v 8.900000 20.567020 -58.126880
v 10.600001 20.567017 -58.126869
v 10.600000 4.188701 -5.217075
v 8.900002 4.188704 -5.217083
v 8.596741 19.503562 -62.481137
v 8.596740 1.988231 -5.898243
v 10.238816 1.567913 -6.028349
v 10.238817 19.300426 -63.312845
vt 1.000000 -0.443694
vt 0.916646 -0.635945
vt 0.916701 2.325647
vt 1.000000 2.325645
vt 1.000000 2.325637
vt 0.916695 2.325639
vt 0.916648 -0.672676
vt 1.000000 -0.443702
vt 1.030000 0.498455
vt 1.011941 0.231581
vt 0.929837 0.274382
vt 0.945000 0.498454
vt 1.011941 0.362826
vt 1.030000 0.500000
vt 0.945000 0.500000
vt 0.929837 0.384825
vn -0.991445 0.124689 0.038598
vn -0.991445 0.124689 0.038598
vn -0.991445 0.124689 0.038598
vn -0.991445 0.124689 0.038598
vn 0.991445 -0.124688 -0.038597
vn 0.991445 -0.124688 -0.038597
vn 0.991445 -0.124688 -0.038597
vn 0.991445 -0.124688 -0.038597
vn 0.000006 0.971446 -0.237261
vn 0.000006 0.971446 -0.237261
vn 0.000006 0.971446 -0.237261
vn 0.000006 0.971446 -0.237261
vn -0.000003 -0.295709 0.955278
vn -0.000003 -0.295709 0.955278
vn -0.000003 -0.295709 0.955278
vn -0.000003 -0.295709 0.955278
s off
g polySurface520 polySurface504
f 1/1/1 5/2/2 6/3/3 4/4/4
f 3/5/5 7/6/6 8/7/7 2/8/8
f 2/9/9 8/10/10 5/11/11 1/12/12
f 7/13/13 3/14/14 4/15/15 6/16/16
