# This file uses centimeters as units for non-parametric coordinates.

g default
v 4.450001 17.008610 -72.696499
v 5.300001 16.328920 -75.479483
v 5.300000 -4.580626 -7.931649
v 4.450000 -3.174227 -7.496279
v 2.303490 16.598131 -74.377182
v 2.303489 -4.023579 -7.759200
v 2.743482 -5.592219 -8.244779
v 2.743482 15.840028 -77.481180
vt 0.666568 -1.086962
vt 0.583219 -1.161158
vt 0.583459 2.325678
vt 0.666780 2.325668
vt 0.666762 2.325663
vt 0.583439 2.325676
vt 0.583229 -1.298210
vt 0.666578 -1.209842
vt 0.765000 -0.394521
vt 0.637174 -0.497530
vt 0.615174 -0.337796
vt 0.722500 -0.251307
vt 0.637174 -0.011941
vt 0.765000 0.041006
vt 0.722500 0.114619
vt 0.615174 0.070163
vn -0.382684 0.882562 0.273199
vn -0.382684 0.882562 0.273199
vn -0.382684 0.882562 0.273199
vn -0.382684 0.882562 0.273199
vn 0.382684 -0.882562 -0.273199
vn 0.382684 -0.882562 -0.273199
vn 0.382684 -0.882562 -0.273199
vn 0.382684 -0.882562 -0.273199
vn -0.000002 0.971446 -0.237259
vn -0.000002 0.971446 -0.237259
vn -0.000002 0.971446 -0.237259
vn -0.000002 0.971446 -0.237259
vn 0.000003 -0.295713 0.955277
vn 0.000003 -0.295713 0.955277
vn 0.000003 -0.295713 0.955277
vn 0.000003 -0.295713 0.955277
s off
g polySurface516 polySurface504
f 1/1/1 5/2/2 6/3/3 4/4/4
f 3/5/5 7/6/6 8/7/7 2/8/8
f 2/9/9 8/10/10 5/11/11 1/12/12
f 7/13/13 3/14/14 4/15/15 6/16/16
