# This file uses centimeters as units for non-parametric coordinates.

g default
v -2.303490 16.598132 -74.377190
v -2.743483 15.840028 -77.481181
v -2.743483 -5.592214 -8.244785
v -2.303490 -4.023577 -7.759208
v -0.000000 -4.313278 -7.848875
v -0.000000 16.458127 -74.950446
v -0.000001 15.657600 -78.113275
v -0.000001 -5.937252 -8.351587
v -0.241312 15.687948 -78.103881
vt 0.499879 -1.186457
vt 0.416552 -1.161135
vt 0.416793 2.325701
vt 0.500131 2.325690
vt 0.500110 2.325690
vt 0.416773 2.325703
vt 0.416562 -1.298182
vt 0.492623 -1.325689
vt 0.499890 -1.325690
vt 0.487934 -0.529574
vt 0.362826 -0.497530
vt 0.384825 -0.337796
vt 0.500000 -0.367296
vt 0.362826 -0.011941
vt 0.500000 -0.030000
vt 0.500000 0.055000
vt 0.384825 0.070163
vn 0.130526 0.947106 0.293178
vn 0.130526 0.947106 0.293178
vn 0.130526 0.947106 0.293178
vn 0.130526 0.947106 0.293178
vn -0.130526 -0.947106 -0.293178
vn -0.130526 -0.947106 -0.293178
vn -0.130526 -0.947106 -0.293178
vn -0.130526 -0.947106 -0.293178
vn -0.130526 -0.947106 -0.293178
vn 0.000000 0.971446 -0.237261
vn 0.000000 0.971446 -0.237261
vn 0.000000 0.971446 -0.237261
vn 0.000000 0.971446 -0.237261
vn -0.000003 -0.295711 0.955278
vn -0.000003 -0.295711 0.955278
vn -0.000003 -0.295711 0.955278
vn -0.000003 -0.295711 0.955278
s off
g polySurface514 polySurface504
f 6/1/1 1/2/2 4/3/3 5/4/4
f 8/5/5 3/6/6 2/7/7 9/8/8 7/9/9
f 9/10/10 2/11/11 1/12/12 6/13/13
f 3/14/14 8/15/15 5/16/16 4/17/17
