# This file uses centimeters as units for non-parametric coordinates.

g default
v -8.596739 21.630483 -53.772621
v -10.238814 21.833613 -52.940899
v -10.238817 6.809494 -4.405813
v -8.596742 6.389178 -4.535921
v -8.900002 4.188705 -5.217082
v -8.899997 20.567023 -58.126879
v -10.600000 20.567017 -58.126861
v -10.600001 4.188703 -5.217078
vt -0.000000 -0.443605
vt -0.083320 -0.251354
vt -0.083367 2.325733
vt -0.000000 2.325734
vt -0.000000 2.325743
vt -0.083362 2.325741
vt -0.083322 -0.214623
vt -0.000000 -0.443596
vt -0.030000 0.498455
vt -0.011941 0.765328
vt 0.070163 0.722527
vt 0.055000 0.498454
vt -0.011941 0.637174
vt -0.030000 0.500000
vt 0.055000 0.500000
vt 0.070163 0.615174
vn 0.991445 -0.124689 -0.038597
vn 0.991445 -0.124689 -0.038597
vn 0.991445 -0.124689 -0.038597
vn 0.991445 -0.124689 -0.038597
vn -0.991445 0.124688 0.038597
vn -0.991445 0.124688 0.038597
vn -0.991445 0.124688 0.038597
vn -0.991445 0.124688 0.038597
vn -0.000002 0.971446 -0.237261
vn -0.000002 0.971446 -0.237261
vn -0.000002 0.971446 -0.237261
vn -0.000002 0.971446 -0.237261
vn 0.000001 -0.295707 0.955279
vn 0.000001 -0.295707 0.955279
vn 0.000001 -0.295707 0.955279
vn 0.000001 -0.295707 0.955279
s off
g polySurface508 polySurface504
f 6/1/1 1/2/2 4/3/3 5/4/4
f 8/5/5 3/6/6 2/7/7 7/8/8
f 7/9/9 2/10/10 1/11/11 6/12/12
f 3/13/13 8/14/14 5/15/15 4/16/16
