# This file uses centimeters as units for non-parametric coordinates.

g default
v 0.000000 24.675915 -41.303318
v 0.000000 25.460760 -38.089820
v 0.000000 14.314654 -2.082572
v 0.000000 12.690678 -2.585277
v 2.303490 24.535909 -41.876562
v 2.303490 12.400982 -2.674954
v 2.743483 13.969623 -2.189382
v 2.743483 25.294009 -38.772565
vt 1.500014 0.299158
vt 1.416682 0.273836
vt 1.416541 2.325678
vt 1.499869 2.325690
vt 1.499890 2.325690
vt 1.416561 2.325676
vt 1.416672 0.410884
vt 1.500003 0.441043
vt 0.500000 1.529574
vt 0.637174 1.494439
vt 0.615174 1.334706
vt 0.500000 1.364205
vt 0.500000 0.945000
vt 0.615174 0.929837
vt 0.637174 1.011941
vt 0.500000 1.030000
vn -0.130525 -0.947106 -0.293178
vn -0.130525 -0.947106 -0.293178
vn -0.130525 -0.947106 -0.293178
vn -0.130525 -0.947106 -0.293178
vn 0.130526 0.947106 0.293178
vn 0.130526 0.947106 0.293178
vn 0.130526 0.947106 0.293178
vn 0.130526 0.947106 0.293178
vn 0.000000 0.971446 -0.237260
vn 0.000000 0.971446 -0.237260
vn 0.000000 0.971446 -0.237260
vn 0.000000 0.971446 -0.237260
vn 0.000001 -0.295707 0.955279
vn 0.000001 -0.295707 0.955279
vn 0.000001 -0.295707 0.955279
vn 0.000001 -0.295707 0.955279
s off
g polySurface525 polySurface504
f 1/1/1 5/2/2 6/3/3 4/4/4
f 3/5/5 7/6/6 8/7/7 2/8/8
f 2/9/9 8/10/10 5/11/11 1/12/12
f 4/13/13 6/14/14 7/15/15 3/16/16
