# This file uses centimeters as units for non-parametric coordinates.

g default
v 7.707627 18.512570 -66.538648
v 9.179868 18.120146 -68.145386
v 9.179869 -0.874272 -6.784331
v 7.707627 -0.062284 -6.532985
v 6.293252 17.661590 -70.022925
v 6.293252 -1.823103 -7.078047
v 7.495331 -2.971424 -7.433517
v 7.495330 17.106619 -72.295200
vt 0.833286 -0.815091
vt 0.749926 -0.968925
vt 0.750092 2.325658
vt 0.833399 2.325651
vt 0.833388 2.325644
vt 0.750078 2.325652
vt 0.749933 -1.069258
vt 0.833292 -0.886041
vt 0.958993 -0.017105
vt 0.874767 -0.230657
vt 0.814662 -0.113724
vt 0.885381 0.065579
vt 0.874766 0.125233
vt 0.958993 0.235000
vt 0.885381 0.277500
vt 0.814662 0.185337
vn -0.793354 0.581536 0.180015
vn -0.793354 0.581536 0.180015
vn -0.793354 0.581536 0.180015
vn -0.793354 0.581536 0.180015
vn 0.793353 -0.581536 -0.180016
vn 0.793353 -0.581536 -0.180016
vn 0.793353 -0.581536 -0.180016
vn 0.793353 -0.581536 -0.180016
vn 0.000003 0.971446 -0.237261
vn 0.000003 0.971446 -0.237261
vn 0.000003 0.971446 -0.237261
vn 0.000003 0.971446 -0.237261
vn -0.000001 -0.295709 0.955278
vn -0.000001 -0.295709 0.955278
vn -0.000001 -0.295709 0.955278
vn -0.000001 -0.295709 0.955278
s off
g polySurface518 polySurface504
f 1/1/1 5/2/2 6/3/3 4/4/4
f 3/5/5 7/6/6 8/7/7 2/8/8
f 2/9/9 8/10/10 5/11/11 1/12/12
f 7/13/13 3/14/14 4/15/15 6/16/16
