# This file uses centimeters as units for non-parametric coordinates.

g default
v -0.000001 15.657600 -78.113275
v -0.241312 15.687948 -78.103881
v 0.241311 15.687950 -78.103880
v -0.000000 16.458128 -74.950445
v 2.303490 16.598135 -74.377189
v 2.743482 15.840029 -77.481180
v -0.000001 -5.937252 -8.351587
v 2.743482 -5.592219 -8.244780
v -0.000000 -4.313278 -7.848875
v 2.303489 -4.023578 -7.759203
v -0.000000 9.060725 -51.053298
v -0.000001 15.240378 -76.765447
v 2.084862 -5.675050 -8.270421
v 1.316622 -4.147692 -7.797620
v -0.195310 15.834768 -77.502743
v -0.058938 15.687949 -78.103881
vt 0.583219 -1.161158
vt 0.499879 -1.186457
vt 0.499969 0.064338
vt 0.547760 2.325683
vt 0.583459 2.325678
vt 0.583439 2.325676
vt 0.563434 2.325679
vt 0.499895 -1.255144
vt 0.499890 -1.325690
vt 0.507157 -1.325691
vt 0.583229 -1.298210
vt 0.637174 -0.497530
vt 0.512066 -0.529574
vt 0.497053 -0.529574
vt 0.490234 -0.498639
vt 0.500000 -0.367296
vt 0.615174 -0.337796
vt 0.500000 -0.030000
vt 0.604243 -0.016276
vt 0.565831 0.063667
vt 0.500000 0.055000
vt 0.500131 2.325690
vt 0.500110 2.325690
vt 0.487934 -0.529574
vt 0.637174 -0.011941
vt 0.615174 0.070163
vn -0.130527 0.947106 0.293178
vn -0.130527 0.947106 0.293178
vn -0.130527 0.947106 0.293178
vn -0.130527 0.947106 0.293178
vn -0.130527 0.947106 0.293178
vn 0.130526 -0.947106 -0.293178
vn 0.130526 -0.947106 -0.293178
vn 0.130526 -0.947106 -0.293178
vn 0.130526 -0.947106 -0.293178
vn 0.130526 -0.947106 -0.293178
vn 0.130526 -0.947106 -0.293178
vn 0.000002 0.971446 -0.237261
vn 0.000002 0.971446 -0.237261
vn 0.000001 0.971446 -0.237262
vn 0.000001 0.971446 -0.237262
vn 0.000002 0.971446 -0.237261
vn 0.000002 0.971446 -0.237261
vn 0.000001 -0.295711 0.955277
vn 0.000001 -0.295710 0.955278
vn 0.000001 -0.295710 0.955278
vn 0.000001 -0.295711 0.955277
vn -0.130526 0.947106 0.293178
vn 0.130526 -0.947106 -0.293178
vn 0.000000 0.971445 -0.237264
vn 0.000001 -0.295709 0.955278
vn 0.000001 -0.295709 0.955278
s 1
g polySurface515 polySurface504
f 5/1/1 4/2/2 11/3/3 14/4/4 10/5/5
s 2
f 8/6/6 13/7/7 12/8/8 1/9/9 3/10/10 6/11/11
s 3
f 6/12/12 3/13/13 16/14/14 15/15/15 4/16/16 5/17/17
s 4
f 7/18/18 13/19/19 14/20/20 9/21/21
s 1
f 14/4/4 11/3/3 9/22/22
s 2
f 12/8/8 13/7/7 7/23/23
s 3
f 15/15/15 16/14/14 2/24/24
s 4
f 14/20/20 13/19/19 8/25/25 10/26/26
