# This file uses centimeters as units for non-parametric coordinates.

g default
v 2.303490 24.535913 -41.876561
v 2.743483 25.294011 -38.772564
v 2.743483 13.969622 -2.189381
v 2.303490 12.400982 -2.674953
v 4.449999 24.125430 -43.557245
v 4.449999 11.551631 -2.937878
v 5.299997 12.958029 -2.502515
v 5.299998 24.805120 -40.774277
vt 1.416682 0.273836
vt 1.333352 0.199619
vt 1.333220 2.325667
vt 1.416541 2.325678
vt 1.416561 2.325676
vt 1.333238 2.325664
vt 1.333343 0.322491
vt 1.416672 0.410884
vt 0.637174 1.494439
vt 0.765000 1.391430
vt 0.722500 1.248217
vt 0.615174 1.334706
vt 0.765000 0.958993
vt 0.637174 1.011941
vt 0.615174 0.929837
vt 0.722500 0.885381
vn -0.382685 -0.882562 -0.273199
vn -0.382685 -0.882562 -0.273199
vn -0.382685 -0.882562 -0.273199
vn -0.382685 -0.882562 -0.273199
vn 0.382685 0.882561 0.273198
vn 0.382685 0.882561 0.273198
vn 0.382685 0.882561 0.273198
vn 0.382685 0.882561 0.273198
vn 0.000002 0.971446 -0.237259
vn 0.000002 0.971446 -0.237259
vn 0.000002 0.971446 -0.237259
vn 0.000002 0.971446 -0.237259
vn -0.000001 -0.295710 0.955278
vn -0.000001 -0.295710 0.955278
vn -0.000001 -0.295710 0.955278
vn -0.000001 -0.295710 0.955278
s off
g polySurface524 polySurface504
f 1/1/1 5/2/2 6/3/3 4/4/4
f 3/5/5 7/6/6 8/7/7 2/8/8
f 2/9/9 8/10/10 5/11/11 1/12/12
f 7/13/13 3/14/14 4/15/15 6/16/16
