# This file uses centimeters as units for non-parametric coordinates.

g default
v 4.755286 -160.000000 49.454914
v 4.045088 -160.000000 48.061073
v 2.938928 -160.000000 46.954914
v 1.545086 -160.000000 46.244713
v 0.000000 -160.000000 45.999996
v -1.545086 -160.000000 46.244717
v -2.938927 -160.000000 46.954914
v -4.045086 -160.000000 48.061073
v -4.755284 -160.000000 49.454914
v -5.000001 -160.000000 51.000000
v -4.755284 -160.000000 52.545086
v -4.045086 -160.000000 53.938927
v -2.938927 -160.000000 55.045086
v -1.545085 -160.000000 55.755283
v -0.000000 -160.000000 56.000000
v 1.545085 -160.000000 55.755283
v 2.938926 -160.000000 55.045086
v 4.045085 -160.000000 53.938927
v 4.755283 -160.000000 52.545086
v 5.000000 -160.000000 51.000000
v 4.755286 46.514999 49.454914
v 4.045088 46.514999 48.061073
v 2.938928 46.514999 46.954914
v 1.545086 46.514999 46.244713
v 0.000000 46.514999 45.999996
v -1.545086 46.514999 46.244717
v -2.938927 46.514999 46.954914
v -4.045086 46.514999 48.061073
v -4.755284 46.514999 49.454914
v -5.000001 46.514999 51.000000
v -4.755284 46.514999 52.545086
v -4.045086 46.514999 53.938927
v -2.938927 46.514999 55.045086
v -1.545085 46.514999 55.755283
v -0.000000 46.514999 56.000000
v 1.545085 46.514999 55.755283
v 2.938926 46.514999 55.045086
v 4.045085 46.514999 53.938927
v 4.755283 46.514999 52.545086
v 5.000000 46.514999 51.000000
v 0.000000 -160.000000 51.000000
v 0.000000 46.514999 51.000000
vt 0.800016 -2.081438
vt 0.850016 -2.081438
vt 0.850016 3.081438
vt 0.800016 3.081438
vt 0.900016 -2.081438
vt 0.900016 3.081438
vt 0.950016 3.081438
vt 0.000016 -2.081438
vt 0.000016 3.081438
vt 0.050016 -2.081438
vt 0.050016 3.081438
vt 0.100016 -2.081438
vt 0.100016 3.081438
vt 0.150016 -2.081438
vt 0.150016 3.081438
vt 0.200016 -2.081438
vt 0.200016 3.081438
vt 0.250016 -2.081438
vt 0.250016 3.081438
vt 0.300016 -2.081438
vt 0.300016 3.081438
vt 0.350016 -2.081438
vt 0.350016 3.081438
vt 0.400016 -2.081438
vt 0.400016 3.081438
vt 0.450016 -2.081438
vt 0.450016 3.081438
vt 0.500016 -2.081438
vt 0.500016 3.081438
vt 0.550016 -2.081438
vt 0.550016 3.081438
vt 0.600016 -2.081438
vt 0.600016 3.081438
vt 0.650016 -2.081438
vt 0.650016 3.081438
vt 0.700016 -2.081438
vt 0.700016 3.081438
vt 0.750016 -2.081438
vt 0.750016 3.081438
vt 0.750016 -2.081438
vt 0.750016 3.081438
vt 0.950016 -2.081438
vt 1.000016 -2.081438
vt 1.050016 -2.081438
vt 1.100016 -2.081438
vt 1.150016 -2.081438
vt 1.200016 -2.081438
vt 1.000016 3.081438
vt 1.050016 3.081438
vt 1.100016 3.081438
vt 1.150016 3.081438
vt 1.200016 3.081438
vt 1.250016 3.081438
vn 0.951057 0.000000 -0.309016
vn 0.809017 0.000000 -0.587785
vn 0.809017 0.000000 -0.587785
vn 0.951057 0.000000 -0.309016
vn 0.587786 0.000000 -0.809017
vn 0.587786 0.000000 -0.809017
vn 0.309018 0.000000 -0.951056
vn 0.309018 0.000000 -0.951056
vn -0.000001 0.000000 -1.000000
vn -0.000001 0.000000 -1.000000
vn -0.309018 0.000000 -0.951056
vn -0.309018 0.000000 -0.951056
vn -0.587785 0.000000 -0.809017
vn -0.587785 0.000000 -0.809017
vn -0.809017 0.000000 -0.587785
vn -0.809017 0.000000 -0.587785
vn -0.951057 0.000000 -0.309017
vn -0.951057 0.000000 -0.309017
vn -1.000000 0.000000 0.000000
vn -1.000000 0.000000 0.000000
vn -0.951057 0.000000 0.309017
vn -0.951057 0.000000 0.309017
vn -0.809017 0.000000 0.587785
vn -0.809017 0.000000 0.587785
vn -0.587785 0.000000 0.809017
vn -0.587785 0.000000 0.809017
vn -0.309017 0.000000 0.951057
vn -0.309017 0.000000 0.951057
vn 0.000000 0.000000 1.000000
vn 0.000000 0.000000 1.000000
vn 0.309017 0.000000 0.951057
vn 0.309017 0.000000 0.951057
vn 0.587785 0.000000 0.809017
vn 0.587785 0.000000 0.809017
vn 0.809017 0.000000 0.587785
vn 0.809017 0.000000 0.587785
vn 0.951057 0.000000 0.309017
vn 0.951057 0.000000 0.309017
vn 1.000000 0.000000 0.000001
vn 1.000000 0.000000 0.000001
vn 0.000000 -1.000000 0.000000
vn 0.000000 -1.000000 0.000000
vn 0.000000 -1.000000 0.000001
vn 0.000000 -1.000000 0.000000
vn 0.000000 -1.000000 0.000000
vn 0.000000 -1.000000 0.000000
vn 0.000000 -1.000000 0.000000
vn 0.000000 -1.000000 0.000000
vn 0.000000 -1.000000 0.000000
vn 0.000000 -1.000000 0.000000
vn 0.000000 -1.000000 0.000000
vn 0.000000 -1.000000 0.000008
vn 0.000000 -1.000000 0.000000
vn 0.000000 -1.000000 -0.000004
vn 0.000000 -1.000000 0.000001
vn 0.000000 -1.000000 -0.000003
vn 0.000000 -1.000000 0.000000
vn 0.000000 -1.000000 0.000008
vn 0.000000 -1.000000 0.000008
vn 0.000000 -1.000000 0.000000
vn 0.000000 -1.000000 0.000000
vn 0.000000 1.000000 0.000000
vn 0.000000 1.000000 0.000000
vn 0.000000 1.000000 0.000000
vn 0.000000 1.000000 0.000000
vn 0.000000 1.000000 0.000000
vn 0.000000 1.000000 0.000000
vn 0.000000 1.000000 0.000000
vn 0.000000 1.000000 0.000000
vn 0.000000 1.000000 0.000001
vn 0.000000 1.000000 -0.000001
vn 0.000000 1.000000 0.000000
vn 0.000000 1.000000 0.000002
vn 0.000000 1.000000 0.000000
vn 0.000000 1.000000 -0.000001
vn 0.000000 1.000000 -0.000001
vn 0.000000 1.000000 0.000000
vn 0.000000 1.000000 0.000000
vn 0.000000 1.000000 0.000000
vn 0.000000 1.000000 0.000000
vn 0.000000 1.000000 0.000000
vn 0.000000 1.000000 0.000000
s 1
g pCylinder7
f 1/1/1 2/2/2 22/3/3 21/4/4
f 2/2/2 3/5/5 23/6/6 22/3/3
f 3/5/5 4/42/7 24/7/8 23/6/6
f 4/42/7 5/43/9 25/48/10 24/7/8
f 5/8/9 6/10/11 26/11/12 25/9/10
f 6/10/11 7/12/13 27/13/14 26/11/12
f 7/12/13 8/14/15 28/15/16 27/13/14
f 8/14/15 9/16/17 29/17/18 28/15/16
f 9/16/17 10/18/19 30/19/20 29/17/18
f 10/18/19 11/20/21 31/21/22 30/19/20
f 11/20/21 12/22/23 32/23/24 31/21/22
f 12/22/23 13/24/25 33/25/26 32/23/24
f 13/24/25 14/26/27 34/27/28 33/25/26
f 14/26/27 15/28/29 35/29/30 34/27/28
f 15/28/29 16/30/31 36/31/32 35/29/30
f 16/30/31 17/32/33 37/33/34 36/31/32
f 17/32/33 18/34/35 38/35/36 37/33/34
f 18/34/35 19/36/37 39/37/38 38/35/36
f 19/36/37 20/38/39 40/39/40 39/37/38
f 20/38/39 1/1/1 21/4/4 40/39/40
s 2
f 2/2/41 1/1/42 41/40/43
f 3/5/44 2/2/41 41/40/43
f 4/42/45 3/5/44 41/40/43
f 5/43/46 4/42/45 41/40/43
f 6/44/47 5/43/46 41/40/43
f 7/45/48 6/44/47 41/40/43
f 8/46/49 7/45/48 41/40/43
f 9/47/50 8/46/49 41/40/43
f 10/18/51 9/47/50 41/40/43
f 11/20/52 10/18/51 41/40/43
f 12/22/53 11/20/52 41/40/43
f 13/24/54 12/22/53 41/40/43
f 14/26/55 13/24/54 41/40/43
f 15/28/56 14/26/55 41/40/43
f 16/30/57 15/28/56 41/40/43
f 17/32/58 16/30/57 41/40/43
f 18/34/59 17/32/58 41/40/43
f 19/36/60 18/34/59 41/40/43
f 20/38/61 19/36/60 41/40/43
f 1/1/42 20/38/61 41/40/43
s 3
f 21/4/62 22/3/63 42/41/64
f 22/3/63 23/6/65 42/41/64
f 23/6/65 24/7/66 42/41/64
f 24/7/66 25/48/67 42/41/64
f 25/48/67 26/49/68 42/41/64
f 26/49/68 27/50/69 42/41/64
f 27/50/69 28/51/70 42/41/64
f 28/51/70 29/52/71 42/41/64
f 29/52/71 30/53/72 42/41/64
f 30/19/72 31/21/73 42/41/64
f 31/21/73 32/23/74 42/41/64
f 32/23/74 33/25/75 42/41/64
f 33/25/75 34/27/76 42/41/64
f 34/27/76 35/29/77 42/41/64
f 35/29/77 36/31/78 42/41/64
f 36/31/78 37/33/79 42/41/64
f 37/33/79 38/35/80 42/41/64
f 38/35/80 39/37/81 42/41/64
f 39/37/81 40/39/82 42/41/64
f 40/39/82 21/4/62 42/41/64
