# This file uses centimeters as units for non-parametric coordinates.

g default
v -43.092983 -96.000000 192.456116
v -44.721939 -96.000008 189.259140
v -47.259090 -96.000015 186.721985
v -50.456093 -96.000015 185.093033
v -53.999996 -96.000008 184.531723
v -57.543907 -96.000015 185.093033
v -60.740902 -96.000023 186.721985
v -63.278057 -96.000031 189.259140
v -64.907013 -96.000031 192.456146
v -65.468315 -96.000015 196.000046
v -64.907013 -96.000008 199.543930
v -63.278061 -96.000015 202.740952
v -60.740910 -96.000023 205.278107
v -57.543900 -96.000023 206.907059
v -54.000004 -96.000015 207.468353
v -50.456104 -96.000015 206.907059
v -47.259098 -96.000023 205.278091
v -44.721947 -96.000023 202.740952
v -43.092999 -96.000023 199.543945
v -42.531693 -96.000008 196.000015
v -45.909821 -139.000023 190.122192
v -44.489429 -139.000023 192.909866
v -48.122143 -139.000008 187.909866
v -50.909828 -138.999992 186.489456
v -54.000000 -138.999992 186.000031
v -57.090172 -139.000008 186.489471
v -59.877857 -139.000023 187.909866
v -62.090172 -139.000023 190.122192
v -63.510567 -139.000023 192.909882
v -64.000000 -139.000008 196.000046
v -63.510563 -139.000008 199.090210
v -62.090176 -139.000008 201.877899
v -59.877865 -139.000008 204.090210
v -57.090172 -139.000023 205.510605
v -54.000000 -139.000008 206.000046
v -50.909836 -139.000023 205.510620
v -48.122154 -139.000008 204.090210
v -45.909832 -139.000023 201.877899
v -44.489433 -139.000023 199.090210
v -44.000000 -139.000008 196.000046
v -39.040352 -78.866425 191.139297
v -41.274570 -78.866447 186.754471
v -44.754433 -78.866470 183.274628
v -49.139313 -78.866478 181.040405
v -53.999996 -78.866463 180.270554
v -58.860687 -78.866455 181.040405
v -63.245567 -78.866455 183.274612
v -66.725433 -78.866470 186.754486
v -68.959656 -78.866470 191.139374
v -69.729500 -78.866463 196.000046
v -68.959648 -78.866455 200.860718
v -66.725433 -78.866463 205.245605
v -63.245564 -78.866463 208.725479
v -58.860680 -78.866463 210.959686
v -54.000008 -78.866463 211.729538
v -49.139324 -78.866455 210.959671
v -44.754425 -78.866470 208.725464
v -41.274567 -78.866470 205.245605
v -39.040371 -78.866463 200.860733
v -38.270504 -78.866440 196.000000
vt 0.938281 -0.004155
vt 0.875672 -0.004155
vt 0.875673 0.716862
vt 0.938281 0.716862
vt 1.000890 -0.004155
vt 1.000889 0.716862
vt 1.063498 -0.004155
vt -0.126067 -0.004155
vt -0.126067 0.716862
vt -0.063458 -0.004155
vt -0.063458 0.716862
vt -0.000850 -0.004155
vt -0.000850 0.716862
vt 0.061759 -0.004155
vt 0.061759 0.716862
vt 0.124368 -0.004155
vt 0.124368 0.716862
vt 0.186976 -0.004155
vt 0.186976 0.716862
vt 0.249585 -0.004155
vt 0.249585 0.716862
vt 0.312194 -0.004155
vt 0.312194 0.716862
vt 0.374802 -0.004155
vt 0.374802 0.716862
vt 0.437411 -0.004155
vt 0.437411 0.716862
vt 0.500020 -0.004155
vt 0.500020 0.716862
vt 0.562628 -0.004155
vt 0.562629 0.716862
vt 0.625237 -0.004155
vt 0.625237 0.716862
vt 0.687846 -0.004155
vt 0.687846 0.716862
vt 0.750455 -0.004155
vt 0.750455 0.716862
vt 0.813063 -0.004155
vt 0.813064 0.716862
vt 0.875673 1.004155
vt 0.938281 1.004155
vt 1.000889 1.004154
vt -0.126067 1.004154
vt -0.063458 1.004154
vt -0.000850 1.004154
vt 0.061759 1.004154
vt 0.124368 1.004154
vt 0.186976 1.004154
vt 0.249585 1.004154
vt 0.312194 1.004154
vt 0.374803 1.004154
vt 0.437411 1.004154
vt 0.500020 1.004154
vt 0.562629 1.004154
vt 0.625237 1.004154
vt 0.687846 1.004154
vt 0.750455 1.004154
vt 0.813064 1.004155
vt 1.126107 -0.004155
vt 1.126107 0.716862
vt 1.063498 0.716862
vt 1.063498 1.004154
vt 1.126107 1.004154
vn -0.808545 0.034127 0.587443
vn -0.950503 0.034127 0.308837
vn -0.941886 0.138536 0.306038
vn -0.801215 0.138536 0.582119
vn -0.587444 0.034127 0.808545
vn -0.582118 0.138536 0.801216
vn -0.308838 0.034127 0.950502
vn -0.306038 0.138536 0.941886
vn 0.000001 0.034127 0.999417
vn 0.000001 0.138536 0.990357
vn 0.308838 0.034127 0.950502
vn 0.306038 0.138536 0.941886
vn 0.587443 0.034127 0.808545
vn 0.582118 0.138536 0.801216
vn 0.808546 0.034127 0.587442
vn 0.801216 0.138536 0.582117
vn 0.950503 0.034127 0.308837
vn 0.941886 0.138536 0.306037
vn 0.999417 0.034127 -0.000001
vn 0.990357 0.138536 -0.000001
vn 0.950503 0.034127 -0.308836
vn 0.941886 0.138536 -0.306037
vn 0.808547 0.034127 -0.587441
vn 0.801217 0.138536 -0.582116
vn 0.587443 0.034127 -0.808546
vn 0.582117 0.138536 -0.801216
vn 0.308836 0.034127 -0.950503
vn 0.306037 0.138536 -0.941886
vn 0.000001 0.034127 -0.999417
vn 0.000000 0.138536 -0.990357
vn -0.308838 0.034127 -0.950502
vn -0.306038 0.138536 -0.941886
vn -0.587443 0.034127 -0.808545
vn -0.582117 0.138536 -0.801216
vn -0.808545 0.034127 -0.587444
vn -0.801216 0.138536 -0.582118
vn -0.950503 0.034127 -0.308837
vn -0.941886 0.138536 -0.306036
vn -0.999417 0.034127 -0.000001
vn -0.990357 0.138536 -0.000001
vn -0.922940 0.241352 0.299883
vn -0.785099 0.241352 0.570411
vn -0.570409 0.241352 0.785100
vn -0.299882 0.241352 0.922941
vn 0.000000 0.241352 0.970438
vn 0.299882 0.241352 0.922941
vn 0.570409 0.241352 0.785101
vn 0.785100 0.241352 0.570409
vn 0.922941 0.241352 0.299881
vn 0.970438 0.241352 -0.000001
vn 0.922941 0.241352 -0.299881
vn 0.785101 0.241352 -0.570408
vn 0.570409 0.241352 -0.785101
vn 0.299881 0.241352 -0.922941
vn -0.000001 0.241352 -0.970438
vn -0.299882 0.241351 -0.922941
vn -0.570408 0.241352 -0.785101
vn -0.785101 0.241352 -0.570408
vn -0.922941 0.241352 -0.299881
vn -0.970438 0.241352 -0.000001
s 1
g polySurface16 pTorus1
f 21/1/1 22/2/2 1/3/3 2/4/4
f 23/5/5 21/1/1 2/4/4 3/6/6
f 24/7/7 23/5/5 3/6/6 4/61/8
f 25/59/9 24/7/7 4/61/8 5/60/10
f 26/10/11 25/8/9 5/9/10 6/11/12
f 27/12/13 26/10/11 6/11/12 7/13/14
f 28/14/15 27/12/13 7/13/14 8/15/16
f 29/16/17 28/14/15 8/15/16 9/17/18
f 30/18/19 29/16/17 9/17/18 10/19/20
f 31/20/21 30/18/19 10/19/20 11/21/22
f 32/22/23 31/20/21 11/21/22 12/23/24
f 33/24/25 32/22/23 12/23/24 13/25/26
f 34/26/27 33/24/25 13/25/26 14/27/28
f 35/28/29 34/26/27 14/27/28 15/29/30
f 36/30/31 35/28/29 15/29/30 16/31/32
f 37/32/33 36/30/31 16/31/32 17/33/34
f 38/34/35 37/32/33 17/33/34 18/35/36
f 39/36/37 38/34/35 18/35/36 19/37/38
f 40/38/39 39/36/37 19/37/38 20/39/40
f 22/2/2 40/38/39 20/39/40 1/3/3
f 2/4/4 1/3/3 41/40/41 42/41/42
f 3/6/6 2/4/4 42/41/42 43/42/43
f 4/61/8 3/6/6 43/42/43 44/62/44
f 5/60/10 4/61/8 44/62/44 45/63/45
f 6/11/12 5/9/10 45/43/45 46/44/46
f 7/13/14 6/11/12 46/44/46 47/45/47
f 8/15/16 7/13/14 47/45/47 48/46/48
f 9/17/18 8/15/16 48/46/48 49/47/49
f 10/19/20 9/17/18 49/47/49 50/48/50
f 11/21/22 10/19/20 50/48/50 51/49/51
f 12/23/24 11/21/22 51/49/51 52/50/52
f 13/25/26 12/23/24 52/50/52 53/51/53
f 14/27/28 13/25/26 53/51/53 54/52/54
f 15/29/30 14/27/28 54/52/54 55/53/55
f 16/31/32 15/29/30 55/53/55 56/54/56
f 17/33/34 16/31/32 56/54/56 57/55/57
f 18/35/36 17/33/34 57/55/57 58/56/58
f 19/37/38 18/35/36 58/56/58 59/57/59
f 20/39/40 19/37/38 59/57/59 60/58/60
f 1/3/3 20/39/40 60/58/60 41/40/41
