# This file uses centimeters as units for non-parametric coordinates.

g default
v -1033.228878 -70.524351 1033.228878
v 1033.228878 -70.524351 1033.228878
v 1033.228878 -66.391435 1033.228878
v -1033.228878 -66.391435 1033.228878
v 1033.228878 -66.391435 -1033.228878
v -1033.228878 -66.391435 -1033.228878
v 1033.228878 -70.524351 -1033.228878
v -1033.228878 -70.524351 -1033.228878
vt -5.623523 -23.994089
vt 6.623523 -23.994089
vt 6.623523 -11.747044
vt -5.623523 -11.747044
vt 6.623523 0.500001
vt -5.623523 0.500001
vt 6.623523 12.747044
vt -5.623523 12.747044
vt 6.623523 24.994089
vt -5.623523 24.994089
vt 18.870567 -23.994089
vt 18.870567 -11.747044
vt -17.870567 -23.994089
vt -17.870567 -11.747044
vn 0.000000 0.000000 1.000000
vn 0.000000 0.000000 1.000000
vn 0.000000 0.000000 1.000000
vn 0.000000 0.000000 1.000000
vn 0.000000 1.000000 0.000000
vn 0.000000 1.000000 0.000000
vn 0.000000 1.000000 0.000000
vn 0.000000 1.000000 0.000000
vn 0.000000 0.000000 -1.000000
vn 0.000000 0.000000 -1.000000
vn 0.000000 0.000000 -1.000000
vn 0.000000 0.000000 -1.000000
vn 0.000000 -1.000000 0.000000
vn 0.000000 -1.000000 0.000000
vn 0.000000 -1.000000 0.000000
vn 0.000000 -1.000000 0.000000
vn 1.000000 0.000000 0.000000
vn 1.000000 0.000000 0.000000
vn 1.000000 0.000000 0.000000
vn 1.000000 0.000000 0.000000
vn -1.000000 0.000000 0.000000
vn -1.000000 0.000000 0.000000
vn -1.000000 0.000000 0.000000
vn -1.000000 0.000000 0.000000
s off
g pCube1
f 1/1/1 2/2/2 3/3/3 4/4/4
f 4/4/5 3/3/6 5/5/7 6/6/8
f 6/6/9 5/5/10 7/7/11 8/8/12
f 8/8/13 7/7/14 2/9/15 1/10/16
f 2/2/17 7/11/18 5/12/19 3/3/20
f 8/13/21 1/1/22 4/4/23 6/14/24
