# This file uses centimeters as units for non-parametric coordinates.

g default
v -4.449999 24.125426 -43.557242
v -5.299997 24.805119 -40.774273
v -5.299998 12.958033 -2.502524
v -4.449999 11.551631 -2.937873
v -6.293252 10.200511 -3.356119
v -6.293252 23.472444 -46.230821
v -7.495331 24.027409 -43.958528
v -7.495332 11.348834 -3.000657
vt -0.249979 0.081627
vt -0.333315 0.199663
vt -0.333447 2.325712
vt -0.250092 2.325721
vt -0.250078 2.325727
vt -0.333428 2.325716
vt -0.333324 0.322544
vt -0.249986 0.181961
vt 0.125233 1.227566
vt 0.235000 1.391430
vt 0.277500 1.248217
vt 0.185337 1.110633
vt 0.235000 0.958993
vt 0.125233 0.874766
vt 0.185337 0.814662
vt 0.277500 0.885381
vn 0.608761 -0.757874 -0.234601
vn 0.608761 -0.757874 -0.234601
vn 0.608761 -0.757874 -0.234601
vn 0.608761 -0.757874 -0.234601
vn -0.608761 0.757874 0.234601
vn -0.608761 0.757874 0.234601
vn -0.608761 0.757874 0.234601
vn -0.608761 0.757874 0.234601
vn -0.000003 0.971446 -0.237260
vn -0.000003 0.971446 -0.237260
vn -0.000003 0.971446 -0.237260
vn -0.000003 0.971446 -0.237260
vn -0.000003 -0.295707 0.955279
vn -0.000003 -0.295707 0.955279
vn -0.000003 -0.295707 0.955279
vn -0.000003 -0.295707 0.955279
s off
g polySurface527 polySurface504
f 6/1/1 1/2/2 4/3/3 5/4/4
f 8/5/5 3/6/6 2/7/7 7/8/8
f 7/9/9 2/10/10 1/11/11 6/12/12
f 3/13/13 8/14/14 5/15/15 4/16/16
