# This file uses centimeters as units for non-parametric coordinates.

g default
v -8.596740 19.503561 -62.481130
v -10.238816 19.300424 -63.312830
v -10.238817 1.567914 -6.028352
v -8.596741 1.988231 -5.898243
v -7.707628 -0.062284 -6.532987
v -7.707627 18.512572 -66.538648
v -9.179870 18.120152 -68.145399
v -9.179873 -0.874271 -6.784338
vt 0.166620 -0.815014
vt 0.083312 -0.635859
vt 0.083367 2.325733
vt 0.166732 2.325728
vt 0.166721 2.325736
vt 0.083362 2.325741
vt 0.083315 -0.672572
vt 0.166625 -0.885949
vt 0.041006 -0.017105
vt -0.011941 0.231582
vt 0.070163 0.274382
vt 0.114619 0.065579
vt -0.011941 0.362826
vt 0.041006 0.235000
vt 0.114619 0.277500
vt 0.070163 0.384825
vn 0.923880 0.365569 0.113163
vn 0.923880 0.365569 0.113163
vn 0.923880 0.365569 0.113163
vn 0.923880 0.365569 0.113163
vn -0.923879 -0.365570 -0.113163
vn -0.923879 -0.365570 -0.113163
vn -0.923879 -0.365570 -0.113163
vn -0.923879 -0.365570 -0.113163
vn -0.000001 0.971446 -0.237260
vn -0.000001 0.971446 -0.237260
vn -0.000001 0.971446 -0.237260
vn -0.000001 0.971446 -0.237260
vn 0.000001 -0.295709 0.955278
vn 0.000001 -0.295709 0.955278
vn 0.000001 -0.295709 0.955278
vn 0.000001 -0.295709 0.955278
s off
g polySurface510 polySurface504
f 6/1/1 1/2/2 4/3/3 5/4/4
f 8/5/5 3/6/6 2/7/7 7/8/8
f 7/9/9 2/10/10 1/11/11 6/12/12
f 3/13/13 8/14/14 5/15/15 4/16/16
