# This file uses centimeters as units for non-parametric coordinates.

g default
v 10.238809 6.818947 -4.431779
v 9.179865 9.261132 -3.675796
v 7.495329 11.358284 -3.026619
v 5.299998 12.967485 -2.528488
v 2.743482 13.979072 -2.215350
v 0.000001 14.324106 -2.108544
v -2.743479 13.979073 -2.215350
v -5.299997 12.967487 -2.528488
v -7.495329 11.358287 -3.026619
v -9.179866 9.261134 -3.675796
v -10.238811 6.818949 -4.431778
v -10.599998 4.198161 -5.243048
v -10.238811 1.577372 -6.054317
v -9.179868 -0.864814 -6.810300
v -7.495331 -2.961967 -7.459477
v -5.300000 -4.571169 -7.957609
v -2.743482 -5.582756 -8.270747
v -0.000000 -5.927789 -8.377553
v 2.743481 -5.582756 -8.270747
v 5.299999 -4.571170 -7.957609
v 7.495331 -2.961969 -7.459478
v 9.179870 -0.864815 -6.810301
v 10.238814 1.577371 -6.054318
v 10.600000 4.198160 -5.243048
v 10.238809 -14.028471 62.915346
v 9.179865 -11.586286 63.671328
v 7.495329 -9.489134 64.320505
v 5.299998 -7.879932 64.818636
v 2.743482 -6.868346 65.131774
v 0.000001 -6.523312 65.238580
v -2.743479 -6.868344 65.131775
v -5.299997 -7.879930 64.818637
v -7.495329 -9.489131 64.320506
v -9.179866 -11.586283 63.671329
v -10.238811 -14.028469 62.915346
v -10.599998 -16.649257 62.104077
v -10.238811 -19.270045 61.292807
v -9.179868 -21.712231 60.536824
v -7.495331 -23.809384 59.887647
v -5.300000 -25.418586 59.389516
v -2.743482 -26.430173 59.076377
v -0.000000 -26.775207 58.969572
v 2.743481 -26.430173 59.076377
v 5.299999 -25.418587 59.389516
v 7.495331 -23.809386 59.887646
v 9.179870 -21.712233 60.536824
v 10.238814 -19.270046 61.292807
v 10.600000 -16.649257 62.104077
v 0.000000 4.198160 -5.243048
v 0.000001 -8.173107 64.727883
v 2.214264 -8.755083 64.547732
v 4.290643 -9.550002 64.301663
v 5.989886 -10.927250 63.875334
v 7.394667 -12.570876 63.366546
v 8.246778 -14.538363 62.757508
v 8.496284 -16.649257 62.104077
v 8.157773 -18.737370 61.457698
v 7.386487 -20.723129 60.843003
v 5.947314 -22.330598 60.345408
v 4.250923 -23.682795 59.926833
v 2.193329 -24.468799 59.683524
v -0.000000 -24.677354 59.618966
v -2.125714 -24.227739 59.758145
v -4.154319 -23.522953 59.976312
v -5.968289 -22.350634 60.339206
v -7.187162 -20.613194 60.877033
v -7.917874 -18.675964 61.476706
v -8.327492 -16.649257 62.104077
v -8.064054 -14.585133 62.743030
v -7.344928 -12.598307 63.358055
v -6.085055 -10.836336 63.903476
v -4.372018 -9.415354 64.343344
v -2.296565 -8.461660 64.638561
v 0.000001 -7.274526 61.825039
v 2.214259 -7.856504 61.644891
v -0.000001 -15.750678 59.201236
v 4.290642 -8.651421 61.398819
v 5.989881 -10.028670 60.972489
v 7.394667 -11.672296 60.463702
v 8.246778 -13.639782 59.854663
v 8.496284 -15.750677 59.201232
v 8.157768 -17.838791 58.554857
v 7.386487 -19.824550 57.940166
v 5.947319 -21.432018 57.442563
v 4.250923 -22.784214 57.023989
v 2.193319 -23.570219 56.780683
v -0.000005 -23.778774 56.716121
v -2.125708 -23.329157 56.855296
v -4.154319 -22.624372 57.073464
v -5.968294 -21.452055 57.436365
v -7.187165 -19.714615 57.974192
v -7.917872 -17.777383 58.573858
v -8.327492 -15.750676 59.201228
v -8.064054 -13.686553 59.840189
v -7.344929 -11.699728 60.455218
v -6.085060 -9.937757 61.000639
v -4.372023 -8.516773 61.440492
v -2.296556 -7.563078 61.735709
vt 1.083352 -0.672551
vt 1.166702 -0.672546
vt 1.166596 2.852454
vt 1.083297 2.852449
vt 1.250050 -0.672538
vt 1.249900 2.852463
vt 1.333394 -0.672527
vt 1.333211 2.852473
vt 1.416735 -0.672514
vt 1.416530 2.852486
vt 1.500070 -0.672500
vt 1.499859 2.852500
vt 1.583401 -0.672486
vt 1.583197 2.852514
vt -0.416599 -0.672486
vt -0.333272 -0.672474
vt -0.333456 2.852526
vt -0.416803 2.852514
vt -0.249950 -0.672463
vt -0.250100 2.852537
vt -0.166632 -0.672454
vt -0.166737 2.852546
vt -0.083315 -0.672449
vt -0.083370 2.852551
vt -0.000000 -0.672447
vt -0.000000 2.852553
vt 0.083315 -0.672449
vt 0.083370 2.852551
vt 0.166631 -0.672454
vt 0.166737 2.852546
vt 0.249950 -0.672463
vt 0.250100 2.852537
vt 0.333272 -0.672474
vt 0.333456 2.852526
vt 0.416599 -0.672486
vt 0.416803 2.852514
vt 0.499930 -0.672500
vt 0.500141 2.852500
vt 0.583265 -0.672514
vt 0.583470 2.852486
vt 0.666606 -0.672526
vt 0.666789 2.852473
vt 0.749950 -0.672537
vt 0.750100 2.852463
vt 0.833298 -0.672546
vt 0.833404 2.852454
vt 0.916649 -0.672551
vt 0.916703 2.852449
vt 1.000000 -0.672553
vt 1.000000 2.852447
vt 0.958993 0.765000
vt 1.011940 0.637174
vt 0.500000 0.500000
vt 0.874766 0.874766
vt 0.765000 0.958993
vt 0.637174 1.011940
vt 0.500000 1.030000
vt 0.362826 1.011940
vt 0.235000 0.958993
vt 0.125233 0.874766
vt 0.041007 0.765000
vt -0.011941 0.637174
vt -0.030000 0.500000
vt -0.011941 0.362826
vt 0.041006 0.235000
vt 0.125233 0.125233
vt 0.235000 0.041007
vt 0.362826 -0.011941
vt 0.500000 -0.030000
vt 0.637174 -0.011941
vt 0.765000 0.041007
vt 0.874766 0.125233
vt 0.958993 0.235000
vt 1.011940 0.362826
vt 1.030000 0.500000
vt 1.011940 0.629410
vt 0.958993 0.750000
vt 0.869733 0.701383
vt 0.912339 0.604232
vt 0.874766 0.853553
vt 0.799494 0.782542
vt 0.765000 0.933013
vt 0.714532 0.850548
vt 0.637174 0.982963
vt 0.610713 0.889799
vt 0.500000 1.000000
vt 0.500000 0.918536
vt 0.362826 0.982963
vt 0.385172 0.904288
vt 0.235000 0.933013
vt 0.281399 0.857196
vt 0.125233 0.853554
vt 0.195747 0.787031
vt 0.041007 0.750000
vt 0.132753 0.700028
vt -0.011941 0.629410
vt 0.096797 0.601923
vt -0.030000 0.500000
vt 0.083625 0.500000
vt -0.011941 0.370591
vt 0.104106 0.399925
vt 0.041006 0.250000
vt 0.140642 0.304268
vt 0.125233 0.146447
vt 0.201585 0.218477
vt 0.235000 0.066987
vt 0.292284 0.160590
vt 0.362826 0.017037
vt 0.393714 0.125789
vt 0.500000 -0.000000
vt 0.500000 0.103588
vt 0.637174 0.017037
vt 0.609666 0.113886
vt 0.765000 0.066987
vt 0.712546 0.152697
vt 0.874766 0.146447
vt 0.797365 0.219466
vt 0.958993 0.250000
vt 0.869324 0.298840
vt 1.011940 0.370591
vt 0.907888 0.396893
vt 1.030000 0.500000
vt 0.924814 0.500000
vt 0.610713 0.889799
vt 0.500000 0.918536
vt 0.500000 0.500000
vt 0.714532 0.850548
vt 0.799494 0.782542
vt 0.869733 0.701383
vt 0.912339 0.604232
vt 0.924814 0.500000
vt 0.907888 0.396893
vt 0.869324 0.298840
vt 0.797365 0.219466
vt 0.712546 0.152697
vt 0.609666 0.113886
vt 0.500000 0.103588
vt 0.393714 0.125789
vt 0.292284 0.160590
vt 0.201585 0.218477
vt 0.140642 0.304268
vt 0.104106 0.399925
vt 0.083625 0.500000
vt 0.096797 0.601923
vt 0.132753 0.700028
vt 0.195747 0.787031
vt 0.281399 0.857196
vt 0.385172 0.904288
vt 1.417459 0.575958
vt 1.503104 0.575969
vt 1.503115 0.424032
vt 1.417470 0.424021
vt 1.331642 0.575948
vt 1.331652 0.424011
vt 1.245898 0.575939
vt 1.245907 0.424002
vt 1.160530 0.575932
vt 1.160535 0.423995
vt 1.075573 0.575928
vt 1.075576 0.423991
vt 0.991128 0.575927
vt 0.991128 0.423990
vt 0.907287 0.575928
vt 0.907284 0.423991
vt 0.824232 0.575932
vt 0.824226 0.423996
vt 0.741578 0.575939
vt 0.741570 0.424002
vt 0.659678 0.575948
vt 0.659669 0.424011
vt 0.578123 0.575958
vt 0.578112 0.424021
vt 0.496896 0.575969
vt 0.496884 0.424032
vt 0.415889 0.575980
vt 0.415878 0.424043
vt 0.334982 0.575990
vt 0.334972 0.424053
vt 0.253903 0.575999
vt 0.253895 0.424062
vt 0.172702 0.576005
vt 0.172696 0.424068
vt 0.091146 0.576009
vt 0.091143 0.424071
vt 0.008872 0.576011
vt 0.008872 0.424074
vt -0.073891 0.576010
vt -0.073889 0.424073
vt -0.157418 0.576006
vt -0.157412 0.424069
vt -0.241561 0.576000
vt -0.241553 0.424063
vt -0.326280 0.575991
vt -0.326270 0.424054
vt -0.411450 0.575981
vt -0.411440 0.424043
vt -0.496896 0.575969
vt -0.496885 0.424032
vn 0.965926 0.247245 0.076535
vn 0.866026 0.477639 0.147854
vn 0.866026 0.477639 0.147854
vn 0.965926 0.247245 0.076535
vn 0.707107 0.675484 0.209097
vn 0.707107 0.675484 0.209097
vn 0.500000 0.827295 0.256091
vn 0.500000 0.827295 0.256091
vn 0.258819 0.922728 0.285632
vn 0.258819 0.922728 0.285632
vn 0.000000 0.955278 0.295708
vn 0.000000 0.955278 0.295708
vn -0.258819 0.922728 0.285632
vn -0.258819 0.922728 0.285632
vn -0.500000 0.827295 0.256091
vn -0.500000 0.827295 0.256091
vn -0.707107 0.675484 0.209097
vn -0.707107 0.675484 0.209097
vn -0.866025 0.477639 0.147854
vn -0.866025 0.477639 0.147854
vn -0.965926 0.247244 0.076535
vn -0.965926 0.247244 0.076535
vn -1.000000 0.000000 0.000000
vn -1.000000 0.000000 0.000000
vn -0.965926 -0.247244 -0.076535
vn -0.965926 -0.247244 -0.076535
vn -0.866026 -0.477639 -0.147854
vn -0.866026 -0.477639 -0.147854
vn -0.707107 -0.675484 -0.209097
vn -0.707107 -0.675484 -0.209097
vn -0.500000 -0.827295 -0.256091
vn -0.500000 -0.827295 -0.256091
vn -0.258819 -0.922728 -0.285632
vn -0.258819 -0.922728 -0.285632
vn 0.000000 -0.955278 -0.295708
vn 0.000000 -0.955278 -0.295708
vn 0.258819 -0.922728 -0.285632
vn 0.258819 -0.922728 -0.285632
vn 0.500000 -0.827295 -0.256091
vn 0.500000 -0.827295 -0.256091
vn 0.707107 -0.675484 -0.209097
vn 0.707107 -0.675484 -0.209097
vn 0.866025 -0.477639 -0.147854
vn 0.866025 -0.477639 -0.147854
vn 0.965926 -0.247244 -0.076535
vn 0.965926 -0.247244 -0.076535
vn 1.000000 0.000001 0.000000
vn 1.000000 0.000001 0.000000
vn 0.000000 0.295708 -0.955278
vn 0.000000 0.295708 -0.955278
vn 0.000000 0.295708 -0.955278
vn 0.000000 0.295708 -0.955278
vn 0.000000 0.295708 -0.955278
vn 0.000000 0.295708 -0.955278
vn 0.000000 0.295708 -0.955278
vn 0.000000 0.295708 -0.955278
vn 0.000000 0.295708 -0.955278
vn 0.000000 0.295708 -0.955278
vn 0.000000 0.295708 -0.955278
vn 0.000000 0.295708 -0.955278
vn -0.000000 0.295708 -0.955278
vn 0.000000 0.295708 -0.955278
vn 0.000000 0.295708 -0.955278
vn 0.000000 0.295708 -0.955278
vn 0.000000 0.295708 -0.955278
vn 0.000000 0.295708 -0.955278
vn 0.000000 0.295708 -0.955278
vn -0.000000 0.295708 -0.955278
vn -0.000000 0.295708 -0.955278
vn 0.000000 0.295708 -0.955278
vn 0.000000 0.295708 -0.955278
vn 0.000000 0.295708 -0.955278
vn 0.000000 0.295708 -0.955278
vn -0.000001 -0.295708 0.955278
vn -0.000000 -0.295708 0.955278
vn -0.000000 -0.295708 0.955278
vn -0.000001 -0.295708 0.955278
vn 0.000001 -0.295708 0.955278
vn 0.000001 -0.295708 0.955278
vn 0.000001 -0.295708 0.955278
vn 0.000001 -0.295708 0.955278
vn 0.000001 -0.295708 0.955278
vn 0.000001 -0.295708 0.955278
vn 0.000001 -0.295708 0.955278
vn 0.000001 -0.295708 0.955278
vn 0.000001 -0.295708 0.955278
vn 0.000001 -0.295708 0.955278
vn 0.000001 -0.295708 0.955278
vn 0.000001 -0.295708 0.955278
vn 0.000000 -0.295708 0.955278
vn 0.000000 -0.295708 0.955278
vn -0.000001 -0.295708 0.955278
vn -0.000001 -0.295708 0.955278
vn -0.000000 -0.295708 0.955278
vn -0.000000 -0.295708 0.955278
vn -0.000000 -0.295708 0.955278
vn -0.000000 -0.295708 0.955278
vn 0.000001 -0.295708 0.955278
vn 0.000001 -0.295708 0.955278
vn -0.000000 -0.295708 0.955278
vn -0.000000 -0.295708 0.955278
vn -0.000001 -0.295708 0.955278
vn -0.000001 -0.295708 0.955278
vn 0.000000 -0.295708 0.955278
vn 0.000000 -0.295708 0.955278
vn 0.000000 -0.295708 0.955278
vn 0.000000 -0.295708 0.955278
vn -0.000001 -0.295708 0.955278
vn -0.000001 -0.295708 0.955278
vn 0.000000 -0.295708 0.955278
vn 0.000000 -0.295708 0.955278
vn 0.000001 -0.295708 0.955278
vn 0.000001 -0.295708 0.955278
vn 0.000000 -0.295708 0.955278
vn 0.000000 -0.295708 0.955278
vn 0.000000 -0.295708 0.955278
vn 0.000000 -0.295708 0.955278
vn 0.000000 -0.295708 0.955278
vn 0.000000 -0.295708 0.955278
vn 0.000000 -0.295708 0.955278
vn 0.000000 -0.295708 0.955278
vn 0.000003 -0.295708 0.955278
vn -0.000003 -0.295708 0.955278
vn 0.000001 -0.295708 0.955278
vn 0.000003 -0.295708 0.955278
vn 0.000000 -0.295708 0.955278
vn 0.000001 -0.295708 0.955278
vn 0.000001 -0.295708 0.955278
vn 0.000001 -0.295707 0.955279
vn 0.000001 -0.295706 0.955279
vn 0.000000 -0.295709 0.955278
vn 0.000000 -0.295710 0.955278
vn 0.000002 -0.295708 0.955278
vn 0.000002 -0.295708 0.955278
vn 0.000000 -0.295709 0.955278
vn -0.000002 -0.295709 0.955278
vn 0.000002 -0.295710 0.955278
vn 0.000003 -0.295709 0.955278
vn -0.000002 -0.295707 0.955279
vn -0.000001 -0.295707 0.955279
vn 0.000000 -0.295710 0.955278
vn 0.000000 -0.295711 0.955278
vn 0.000000 -0.295709 0.955278
vn 0.000003 -0.295706 0.955279
vn 0.000003 -0.295705 0.955279
vn -0.000003 -0.295707 0.955279
vn -0.319146 -0.905323 -0.280244
vn -0.068803 -0.953015 -0.295007
vn -0.068803 -0.953015 -0.295007
vn -0.319146 -0.905323 -0.280244
vn -0.516175 -0.818180 -0.253269
vn -0.516175 -0.818180 -0.253269
vn -0.713756 -0.669072 -0.207112
vn -0.713756 -0.669072 -0.207112
vn -0.858483 -0.489907 -0.151651
vn -0.858483 -0.489907 -0.151651
vn -0.968326 -0.238524 -0.073836
vn -0.968326 -0.238524 -0.073836
vn -0.999788 0.019681 0.006093
vn -0.999788 0.019681 0.006093
vn -0.967797 0.240472 0.074439
vn -0.967797 0.240472 0.074439
vn -0.862090 0.484092 0.149852
vn -0.862090 0.484092 0.149852
vn -0.702793 0.679580 0.210365
vn -0.702793 0.679580 0.210365
vn -0.512327 0.820384 0.253951
vn -0.512327 0.820384 0.253951
vn -0.237517 0.927941 0.287246
vn -0.237517 0.927941 0.287246
vn 0.059309 0.953597 0.295188
vn 0.059309 0.953597 0.295188
vn 0.279582 0.917184 0.283916
vn 0.279582 0.917184 0.283916
vn 0.454497 0.850913 0.263401
vn 0.454497 0.850913 0.263401
vn 0.708654 0.674003 0.208638
vn 0.708654 0.674003 0.208638
vn 0.892414 0.431039 0.133428
vn 0.892414 0.431039 0.133428
vn 0.964227 0.253222 0.078386
vn 0.964227 0.253222 0.078386
vn 0.999398 0.033144 0.010260
vn 0.999398 0.033144 0.010260
vn 0.974322 -0.215090 -0.066582
vn 0.974322 -0.215090 -0.066582
vn 0.893337 -0.429289 -0.132888
vn 0.893337 -0.429289 -0.132888
vn 0.746835 -0.635269 -0.196649
vn 0.746835 -0.635269 -0.196649
vn 0.549444 -0.798164 -0.247073
vn 0.549444 -0.798164 -0.247073
vn 0.285535 -0.915509 -0.283397
vn 0.285535 -0.915509 -0.283397
s 1
g polySurface529 polySurface504
f 1/1/1 2/2/2 26/3/3 25/4/4
f 2/2/2 3/5/5 27/6/6 26/3/3
f 3/5/5 4/7/7 28/8/8 27/6/6
f 4/7/7 5/9/9 29/10/10 28/8/8
f 5/9/9 6/11/11 30/12/12 29/10/10
f 6/11/11 7/13/13 31/14/14 30/12/12
f 7/15/13 8/16/15 32/17/16 31/18/14
f 8/16/15 9/19/17 33/20/18 32/17/16
f 9/19/17 10/21/19 34/22/20 33/20/18
f 10/21/19 11/23/21 35/24/22 34/22/20
f 11/23/21 12/25/23 36/26/24 35/24/22
f 12/25/23 13/27/25 37/28/26 36/26/24
f 13/27/25 14/29/27 38/30/28 37/28/26
f 14/29/27 15/31/29 39/32/30 38/30/28
f 15/31/29 16/33/31 40/34/32 39/32/30
f 16/33/31 17/35/33 41/36/34 40/34/32
f 17/35/33 18/37/35 42/38/36 41/36/34
f 18/37/35 19/39/37 43/40/38 42/38/36
f 19/39/37 20/41/39 44/42/40 43/40/38
f 20/41/39 21/43/41 45/44/42 44/42/40
f 21/43/41 22/45/43 46/46/44 45/44/42
f 22/45/43 23/47/45 47/48/46 46/46/44
f 23/47/45 24/49/47 48/50/48 47/48/46
f 24/49/47 1/1/1 25/4/4 48/50/48
s 2
f 2/51/49 1/52/50 49/53/51
f 3/54/52 2/51/49 49/53/51
f 4/55/53 3/54/52 49/53/51
f 5/56/54 4/55/53 49/53/51
f 6/57/55 5/56/54 49/53/51
f 7/58/56 6/57/55 49/53/51
f 8/59/57 7/58/56 49/53/51
f 9/60/58 8/59/57 49/53/51
f 10/61/59 9/60/58 49/53/51
f 11/62/60 10/61/59 49/53/51
f 12/63/61 11/62/60 49/53/51
f 13/64/62 12/63/61 49/53/51
f 14/65/63 13/64/62 49/53/51
f 15/66/64 14/65/63 49/53/51
f 16/67/65 15/66/64 49/53/51
f 17/68/66 16/67/65 49/53/51
f 18/69/67 17/68/66 49/53/51
f 19/70/68 18/69/67 49/53/51
f 20/71/69 19/70/68 49/53/51
f 21/72/70 20/71/69 49/53/51
f 22/73/71 21/72/70 49/53/51
f 23/74/72 22/73/71 49/53/51
f 24/75/73 23/74/72 49/53/51
f 1/52/50 24/75/73 49/53/51
s 3
f 25/76/74 26/77/75 54/78/76 55/79/77
f 26/77/75 27/80/78 53/81/79 54/78/76
f 27/80/78 28/82/80 52/83/81 53/81/79
f 28/82/80 29/84/82 51/85/83 52/83/81
f 29/84/82 30/86/84 50/87/85 51/85/83
f 30/86/84 31/88/86 73/89/87 50/87/85
f 31/88/86 32/90/88 72/91/89 73/89/87
f 32/90/88 33/92/90 71/93/91 72/91/89
f 33/92/90 34/94/92 70/95/93 71/93/91
f 34/94/92 35/96/94 69/97/95 70/95/93
f 35/96/94 36/98/96 68/99/97 69/97/95
f 36/98/96 37/100/98 67/101/99 68/99/97
f 37/100/98 38/102/100 66/103/101 67/101/99
f 38/102/100 39/104/102 65/105/103 66/103/101
f 39/104/102 40/106/104 64/107/105 65/105/103
f 40/106/104 41/108/106 63/109/107 64/107/105
f 41/108/106 42/110/108 62/111/109 63/109/107
f 42/110/108 43/112/110 61/113/111 62/111/109
f 43/112/110 44/114/112 60/115/113 61/113/111
f 44/114/112 45/116/114 59/117/115 60/115/113
f 45/116/114 46/118/116 58/119/117 59/117/115
f 46/118/116 47/120/118 57/121/119 58/119/117
f 47/120/118 48/122/120 56/123/121 57/121/119
f 48/122/120 25/76/74 55/79/77 56/123/121
s 4
f 75/124/122 74/125/123 76/126/124
f 77/127/125 75/124/122 76/126/124
f 78/128/126 77/127/125 76/126/124
f 79/129/127 78/128/126 76/126/124
f 80/130/128 79/129/127 76/126/124
f 81/131/129 80/130/128 76/126/124
f 82/132/130 81/131/129 76/126/124
f 83/133/131 82/132/130 76/126/124
f 84/134/132 83/133/131 76/126/124
f 85/135/133 84/134/132 76/126/124
f 86/136/134 85/135/133 76/126/124
f 87/137/135 86/136/134 76/126/124
f 88/138/136 87/137/135 76/126/124
f 89/139/137 88/138/136 76/126/124
f 90/140/138 89/139/137 76/126/124
f 91/141/139 90/140/138 76/126/124
f 92/142/140 91/141/139 76/126/124
f 93/143/141 92/142/140 76/126/124
f 94/144/142 93/143/141 76/126/124
f 95/145/143 94/144/142 76/126/124
f 96/146/144 95/145/143 76/126/124
f 97/147/145 96/146/144 76/126/124
f 98/148/146 97/147/145 76/126/124
f 74/125/123 98/148/146 76/126/124
s 5
f 51/149/147 50/150/148 74/151/149 75/152/150
f 52/153/151 51/149/147 75/152/150 77/154/152
f 53/155/153 52/153/151 77/154/152 78/156/154
f 54/157/155 53/155/153 78/156/154 79/158/156
f 55/159/157 54/157/155 79/158/156 80/160/158
f 56/161/159 55/159/157 80/160/158 81/162/160
f 57/163/161 56/161/159 81/162/160 82/164/162
f 58/165/163 57/163/161 82/164/162 83/166/164
f 59/167/165 58/165/163 83/166/164 84/168/166
f 60/169/167 59/167/165 84/168/166 85/170/168
f 61/171/169 60/169/167 85/170/168 86/172/170
f 62/173/171 61/171/169 86/172/170 87/174/172
f 63/175/173 62/173/171 87/174/172 88/176/174
f 64/177/175 63/175/173 88/176/174 89/178/176
f 65/179/177 64/177/175 89/178/176 90/180/178
f 66/181/179 65/179/177 90/180/178 91/182/180
f 67/183/181 66/181/179 91/182/180 92/184/182
f 68/185/183 67/183/181 92/184/182 93/186/184
f 69/187/185 68/185/183 93/186/184 94/188/186
f 70/189/187 69/187/185 94/188/186 95/190/188
f 71/191/189 70/189/187 95/190/188 96/192/190
f 72/193/191 71/191/189 96/192/190 97/194/192
f 73/195/193 72/193/191 97/194/192 98/196/194
f 50/197/148 73/195/193 98/196/194 74/198/149
