# This file uses centimeters as units for non-parametric coordinates.

g default
v -2.303490 24.535909 -41.876562
v -2.303490 12.400982 -2.674954
v -4.450000 11.551633 -2.937876
v -4.450000 24.125428 -43.557246
v -2.743482 13.969624 -2.189384
v -2.743482 25.294009 -38.772561
v -5.299999 24.805121 -40.774273
v -5.299999 12.958033 -2.502521
vt -0.333315 0.199663
vt -0.416651 0.273859
vt -0.416793 2.325701
vt -0.333447 2.325712
vt -0.333428 2.325716
vt -0.416773 2.325703
vt -0.416662 0.410912
vt -0.333324 0.322544
vt 0.235000 1.391430
vt 0.362826 1.494439
vt 0.384825 1.334706
vt 0.277500 1.248217
vt 0.362826 1.011941
vt 0.235000 0.958993
vt 0.277500 0.885381
vt 0.384825 0.929837
vn 0.382684 -0.882562 -0.273199
vn 0.382684 -0.882562 -0.273199
vn 0.382684 -0.882562 -0.273199
vn 0.382684 -0.882562 -0.273199
vn -0.382684 0.882562 0.273199
vn -0.382684 0.882562 0.273199
vn -0.382684 0.882562 0.273199
vn -0.382684 0.882562 0.273199
vn 0.000000 0.971446 -0.237259
vn 0.000000 0.971446 -0.237259
vn 0.000000 0.971446 -0.237259
vn 0.000000 0.971446 -0.237259
vn -0.000000 -0.295707 0.955279
vn -0.000000 -0.295707 0.955279
vn -0.000000 -0.295707 0.955279
vn -0.000000 -0.295707 0.955279
s off
g polySurface528 polySurface504
f 4/1/1 1/2/2 2/3/3 3/4/4
f 8/5/5 5/6/6 6/7/7 7/8/8
f 7/9/9 6/10/10 1/11/11 4/12/12
f 5/13/13 8/14/14 3/15/15 2/16/16
