# This file uses centimeters as units for non-parametric coordinates.

g default
v 6.293250 23.472445 -46.230821
v 7.495328 24.027410 -43.958536
v 7.495329 11.348830 -3.000658
v 6.293248 10.200509 -3.356121
v 7.707626 22.621468 -49.715093
v 7.707625 8.439694 -3.901188
v 9.179868 9.251676 -3.649827
v 9.179868 23.013886 -48.108345
vt 1.250021 0.081564
vt 1.166687 -0.072284
vt 1.166601 2.325651
vt 1.249908 2.325658
vt 1.249923 2.325652
vt 1.166612 2.325644
vt 1.166682 -0.001349
vt 1.250013 0.181885
vt 0.874767 1.227566
vt 0.958993 1.014014
vt 0.885381 0.931330
vt 0.814662 1.110633
vt 0.958993 0.765000
vt 0.874766 0.874766
vt 0.814662 0.814662
vt 0.885381 0.722500
vn -0.793353 -0.581537 -0.180016
vn -0.793353 -0.581537 -0.180016
vn -0.793353 -0.581537 -0.180016
vn -0.793353 -0.581537 -0.180016
vn 0.793353 0.581537 0.180016
vn 0.793353 0.581537 0.180016
vn 0.793353 0.581537 0.180016
vn 0.793353 0.581537 0.180016
vn 0.000003 0.971446 -0.237259
vn 0.000003 0.971446 -0.237259
vn 0.000003 0.971446 -0.237259
vn 0.000003 0.971446 -0.237259
vn -0.000003 -0.295709 0.955278
vn -0.000003 -0.295709 0.955278
vn -0.000003 -0.295709 0.955278
vn -0.000003 -0.295709 0.955278
s off
g polySurface522 polySurface504
f 1/1/1 5/2/2 6/3/3 4/4/4
f 3/5/5 7/6/6 8/7/7 2/8/8
f 2/9/9 8/10/10 5/11/11 1/12/12
f 7/13/13 3/14/14 4/15/15 6/16/16
